<svg xmlns="http://www.w3.org/2000/svg" width="42.031" height="42.03" viewBox="41.113 16.727 42.031 42.03"><path d="M83.143 57.005c0 .968-.784 1.752-1.75 1.752H42.866a1.751 1.751 0 0 1 0-3.503h38.525c.967 0 1.751.784 1.751 1.751Zm-41.517-25.3a4.278 4.278 0 0 1 .268-4.493 8.258 8.258 0 0 1 2.92-2.627L57.95 17.75a9.06 9.06 0 0 1 8.36 0l13.133 6.841a8.258 8.258 0 0 1 2.921 2.627 4.278 4.278 0 0 1 .268 4.493 4.75 4.75 0 0 1-4.23 2.53h-.512v14.01h1.751a1.751 1.751 0 1 1 0 3.502H44.618a1.751 1.751 0 1 1 0-3.502h1.752V34.24h-.512a4.75 4.75 0 0 1-4.232-2.535Zm8.246 16.545h5.253V34.24h-5.253v14.01Zm8.755-14.01v14.01h7.005V34.24h-7.005Zm15.76 0h-5.253v14.01h5.254V34.24ZM44.73 30.083c.224.413.66.666 1.13.657H78.4c.47.01.906-.244 1.13-.657a.792.792 0 0 0-.042-.876 4.728 4.728 0 0 0-1.662-1.513l-13.134-6.841a5.562 5.562 0 0 0-5.123 0l-13.134 6.841a4.75 4.75 0 0 0-1.662 1.515.792.792 0 0 0-.045.874Z" fill="#b9b9b9" fill-rule="evenodd" data-name="bank (1)"/></svg>