<svg xmlns="http://www.w3.org/2000/svg" width="60.852" height="44.821" viewBox="31.703 13.935 60.852 44.821"><g data-name="_2282618433888"><path d="M31.743 55.016c.437.47.5 1.573 2.103 1.954.926.22 26.723.08 28.331.08 1.524 0 27.475.148 28.308-.094 1.414-.409 1.625-1.357 2.002-2.156l.005-24.185-60.758-.009.009 24.41Z" fill="#b9b9b9" fill-rule="evenodd" data-name="Path 6197"/><path d="M31.732 30.57h60.76l-.001-9.942-60.773-.006.014 9.947Z" fill="#1d1d1d" fill-rule="evenodd" data-name="Path 6198"/><path d="M31.722 20.585h60.774c-.043-2.422.786-6.372-2.632-6.573-2.867-.168-6.272-.007-9.199-.007H43.69c-3.027 0-6.193-.091-9.202.002-1.394.042-2.302.883-2.631 1.962-.278.91-.082 3.478-.134 4.616Z" fill="#b9b9b9" fill-rule="evenodd" data-name="Path 6200"/><path d="m31.743 55.016.104 1.676c.747 2.538 3.415 2.02 6.117 2.02H86.39c2.745 0 5.273.534 6.016-2.12l.082-1.792c-.378.799-.59 1.747-2.003 2.156-.832.24-26.783.092-28.308.092-1.609 0-27.405.14-28.331-.079-1.604-.38-1.665-1.484-2.103-1.953Z" fill="#dcdcdc" fill-rule="evenodd" data-name="Path 6201"/><path d="m56.302 46.487 32.76.03.018-2.236-32.786-.048.008 2.254Z" fill="#dcdcdc" fill-rule="evenodd" data-name="Path 6202"/><path d="m56.3 50.15 32.763.03.014-2.218-32.778-.034.002 2.222Z" fill="#dcdcdc" fill-rule="evenodd" data-name="Path 6203"/><path d="M45.391 45.113c-.323.7-.815 1.257-.82 2.345-.005 1.116.434 1.67.824 2.387.964.817 2.17 1.76 4.141 1.018 3.168-1.192 2.969-5.764-.026-6.789-.707-.243-1.57-.314-2.343-.081-1.035.31-1.183.741-1.775 1.12Z" fill="#dcdcdc" fill-rule="evenodd" data-name="Path 6204"/><path d="M45.395 49.845c-.392-.716-.83-1.27-.824-2.386.005-1.09.497-1.646.82-2.346-1.439-2.225-6.45-1.494-6.372 2.44.049 2.49 2.435 4.077 4.694 3.4.682-.205 1.483-.7 1.682-1.108Z" fill="#dd1b34" fill-rule="evenodd" data-name="Path 6205"/><path d="m75.843 38.453 6.783-.01-.014-2.798-6.772-.001.003 2.81Z" fill="#262626" fill-rule="evenodd" data-name="Path 6206"/><path d="m66.398 38.438 1.404.005h4.51l.842-.003.017-2.789-.958-.007-5.063-.003-.748.02-.004 2.777Z" fill="#262626" fill-rule="evenodd" data-name="Path 6207"/></g></svg>