<svg xmlns="http://www.w3.org/2000/svg" width="268.765" height="126.431" viewBox="0 0 268.765 126.431">
  <g id="Group_5" data-name="Group 5" transform="translate(0 0)">
    <path id="Path_3" data-name="Path 3" d="M220.485,1461.427c0-.2.058-.145.178-.248l11.217-7.961c.381-.275.717-.484,1.086-.76.7-.522,1.376-.968,2.069-1.482l2.141-1.481c.551.292,4.37,3.083,5.214,3.665,3.441,2.375,7.014,5.069,10.455,7.444.275.19,1.023.645,1.023.824v21.948H220.485Zm-14.845-2.77H195.554c-.276.521-.66.934-.981,1.434a6.216,6.216,0,0,0-.866,1.549h-3.551a5.44,5.44,0,0,0-1.014-2.466c-2.583-3.063-5.331.32-5.378,2.466h-3.338a4.787,4.787,0,0,0-.983-2.427,5.285,5.285,0,0,0-.876-.829c-2.168-1.425-4.535,1.028-4.535,3.256H99.1c-7.174,0-14.193.071-21.309.071H8.463a8.511,8.511,0,0,0-2.415.213,8.067,8.067,0,0,0-4.717,3.309,7.961,7.961,0,0,0,.9,9.886,7.512,7.512,0,0,0,2.137,1.556,6.887,6.887,0,0,0,2.96.8H18.834v20.882c0,.164.049.213.213.213H29.7c.164,0,.213-.049.213-.213V1477.48h6.535v15.484c0,.164.049.213.213.213H47.317c.164,0,.213-.049.213-.213V1477.48c42.214,0,84.32.142,126.5.142,0,2.565,3.194,5.33,5.359,2.447a5.6,5.6,0,0,0,1.034-2.447h3.338c.034,1.539,1.507,3.728,3.19,3.681a3.286,3.286,0,0,0,2.807-2.3,4.81,4.81,0,0,0,.395-1.381h3.551c.176.755,1.735,2.565,1.847,2.983H205.64a34.244,34.244,0,0,0,5.085,11.962,27.163,27.163,0,0,0,3.1,3.718,24.7,24.7,0,0,0,4.79,3.8c1.077.636,2.168,1.27,3.313,1.8a35.1,35.1,0,0,0,14.04,3.078,34.137,34.137,0,0,0,9.461-.98,28.778,28.778,0,0,0,5.976-2.193,35.916,35.916,0,0,0,3.84-2.269,25.879,25.879,0,0,0,3.9-3.277,6.346,6.346,0,0,0,.5-.565c.4-.475.963-1.01,1.441-1.613a30.294,30.294,0,0,0,2.131-2.983l2.137-4.042c2.375-4.943,3.433-11.544,3.433-17.8a45.146,45.146,0,0,0-2.317-14.446,33.486,33.486,0,0,0-6.333-11.5l-3.124-3.2-1.7-1.424a28.7,28.7,0,0,0-2.529-1.733c-.457-.271-.871-.541-1.35-.781-.956-.478-1.822-.933-2.848-1.343a31.807,31.807,0,0,0-3.125-1.066,33.417,33.417,0,0,0-15.508-.367,30.15,30.15,0,0,0-14.135,7.1l-1.775,1.705a28.558,28.558,0,0,0-4.514,6.14,38.087,38.087,0,0,0-3.885,10.321Z" transform="translate(-0.02 -1378.537)" fill="#f9ac1b" fill-rule="evenodd"/>
    <path id="Path_4" data-name="Path 4" d="M705.646,444.934a3.078,3.078,0,0,0,1.119,2.575c.791.709,1.573.621,3,.621h25.5a6.709,6.709,0,0,1,4.334,1.064,4.458,4.458,0,0,1,.944.9,34.049,34.049,0,0,1,2.535,4.781c.859,1.7,1.756,3.8,2.6,5.565a11.553,11.553,0,0,1,.877,1.893H713.317a69.827,69.827,0,0,0-8.148.162,13.515,13.515,0,0,0-6.03,2.281,12.7,12.7,0,0,0-3.509,3.736,14.791,14.791,0,0,0-2.059,7.53,15.054,15.054,0,0,0,1.167,5.723,12.834,12.834,0,0,0,2.758,4.2,11,11,0,0,0,2.907,2.278,8.128,8.128,0,0,0,1.184.591,14.793,14.793,0,0,0,5.763,1.2h26.778c.164,0,.213-.049.213-.213V483.5c0-.347-.734-.213-1.065-.213-4.254,0-25.81.1-27-.066-6.42-.894-7.625-8.611-4.065-12.171.167-.167.281-.223.465-.388a7.463,7.463,0,0,1,4.386-1.581h91.2v-27.2h-6.606v20.456H772.128V441.88h-6.677v20.456H753.234c-.12-.518-2.349-5.279-2.747-6.132-.66-1.416-1.406-3.17-2.107-4.57-.266-.53-.468-1.008-.734-1.539-1.29-2.579-2.126-4.789-4.508-6.573a8.589,8.589,0,0,0-5.1-1.643H724.4c-2.471,0-4.754.071-7.174.071h-7.245c-1.358,0-2.288-.089-3.1.525a3.041,3.041,0,0,0-1.235,2.458Z" transform="translate(-667.371 -425.188)" fill="#243840" fill-rule="evenodd"/>
    <path id="Path_5" data-name="Path 5" d="M3751.732,22.81a7.4,7.4,0,0,1,6.551,2.967,13.226,13.226,0,0,1,1.145,1.768,18.823,18.823,0,0,1,1.553,4.272,23.5,23.5,0,0,1,.7,5.91h-19.107c0-4.6,1.43-10.587,4.748-13.293a7.372,7.372,0,0,1,4.415-1.622Zm51.425,20.669a9.41,9.41,0,0,1-5.876-1.8,6.68,6.68,0,0,1-.678-.53c-.112-.109-.165-.182-.286-.282a1.853,1.853,0,0,1-.346-.293,10.373,10.373,0,0,1-1.953-2.876,9.981,9.981,0,0,1,1.558-10.542,3.8,3.8,0,0,0,.287-.353,5.986,5.986,0,0,1,.636-.571,9.892,9.892,0,0,1,10.519-1.463,9.665,9.665,0,0,1,2.836,1.994l.56.647a8.486,8.486,0,0,1,.5.707,9.863,9.863,0,0,1-1.1,12.356,9.634,9.634,0,0,1-6.659,3Zm-86.088.923h72.663c.209,0,.173.1.308.26a14.931,14.931,0,0,0,3.485,2.978,17.66,17.66,0,0,0,7.009,2.367A16.156,16.156,0,0,0,3808.748,49a14.954,14.954,0,0,0,4.526-2.719,5.109,5.109,0,0,0,.519-.476c.21-.2.357-.274.572-.494l.961-1.1a16.007,16.007,0,0,0,1.705-2.414c.137-.246.2-.413.347-.648a16.7,16.7,0,0,0,1.692-5.552,15.969,15.969,0,0,0-.285-5.543,16.226,16.226,0,0,0-2.075-5.1c-.151-.24-.257-.434-.413-.653a17.6,17.6,0,0,0-1.864-2.255l-1.585-1.4a16.309,16.309,0,0,0-16.676-1.982,15.665,15.665,0,0,0-3.782,2.4c-.22.172-.314.305-.527.468a5.186,5.186,0,0,0-.55.515,16.655,16.655,0,0,0-4.777,11.631,13.93,13.93,0,0,0,.284,2.77h-19.249l-.324-4.009a25.079,25.079,0,0,0-1.266-5.2,16.773,16.773,0,0,0-3.684-6.047l-1.168-1.034c-3.983-3.214-9.938-3.729-14.625-1.937-4.884,1.868-7.7,6.384-8.948,11.366a34.29,34.29,0,0,0-.884,8.137h-12.927V.01h-6.677V44.4Z" transform="translate(-3576.655 -0.01)" fill="#243840" fill-rule="evenodd"/>
    <path id="Path_6" data-name="Path 6" d="M3098.48,124.449a4.468,4.468,0,0,0,4.333,4.475,4.415,4.415,0,0,0,3.144-7.477A4.357,4.357,0,0,0,3098.48,124.449Z" transform="translate(-2981.434 -115.571)" fill="#243840" fill-rule="evenodd"/>
    <path id="Path_7" data-name="Path 7" d="M4529.38,124.4a4.383,4.383,0,1,0,6.3-3.956A4.407,4.407,0,0,0,4529.38,124.4Z" transform="translate(-4358.28 -115.455)" fill="#243840" fill-rule="evenodd"/>
    <path id="Path_8" data-name="Path 8" d="M2703.611,1320.592a4.654,4.654,0,0,0,1.2,2.994,4.506,4.506,0,0,0,2.852,1.409,4.162,4.162,0,0,0,3.392-1.3,4.357,4.357,0,0,0-.034-6.252,6.778,6.778,0,0,0-.586-.479c-2.867-2.077-6.82.289-6.82,3.624Z" transform="translate(-2601.48 -1266.468)" fill="#243840" fill-rule="evenodd"/>
    <path id="Path_9" data-name="Path 9" d="M3371.12,124.384a4.462,4.462,0,0,0,.841,2.781,4.249,4.249,0,0,0,5.238,1.451,3.605,3.605,0,0,0,1.29-.912,4.04,4.04,0,0,0,.933-1.269,4.352,4.352,0,0,0-7.006-4.946A4.262,4.262,0,0,0,3371.12,124.384Z" transform="translate(-3243.774 -115.648)" fill="#243840" fill-rule="evenodd"/>
    <path id="Path_10" data-name="Path 10" d="M2436.113,1325.235a3.749,3.749,0,0,0,2.25-.45,4.564,4.564,0,0,0,1.989-1.989,4.357,4.357,0,0,0-.881-5.109,4.349,4.349,0,0,0-6.217,6.075A4.252,4.252,0,0,0,2436.113,1325.235Z" transform="translate(-2340.233 -1266.708)" fill="#243840" fill-rule="evenodd"/>
  </g>
</svg>
