<svg id="Layer_x0020_1" xmlns="http://www.w3.org/2000/svg" width="268.751" height="126.077" viewBox="0 0 268.751 126.077">
  <g id="_2014180270688" transform="translate(0 0)">
    <g id="Group_4" data-name="Group 4" transform="translate(0 0)">
      <path id="Path_11" data-name="Path 11" d="M220.614,5868.624c0-.3,1.762-1.4,1.989-1.562.707-.5,1.417-.983,2.12-1.5l4.2-2.973c.692-.488,1.36-.99,2.074-1.477s1.4-1.032,2.117-1.506c1.273-.837,2.906-2.123,4.191-2.983a1.282,1.282,0,0,1,.548.3l5.731,4.071c3.219,2.222,6.692,4.774,9.916,7.06a2.331,2.331,0,0,0,.568.355v22.09H220.614Zm-14.774-2.841H195.754c-.163.243-.328.47-.5.709a9.381,9.381,0,0,0-1.349,2.273h-3.552a4.986,4.986,0,0,0-.993-2.416,2.594,2.594,0,0,0-4.407-.071,4.325,4.325,0,0,0-.993,2.488h-3.338a4.743,4.743,0,0,0-1.858-3.256,2.489,2.489,0,0,0-2.477-.156,3.729,3.729,0,0,0-1.184,1.019,4.44,4.44,0,0,0-.723,1.479c-.4,1.26.232.915-2,.915H86.866c-1.037,0-1.861.071-2.841.071H10.368c-3.27,0-4.805-.074-7.134,1.673a8.539,8.539,0,0,0-1.471,1.512,7.917,7.917,0,0,0,2.843,11.812,7.212,7.212,0,0,0,2.921.771H19.034v20.883c0,.164.049.213.213.213H29.9c.164,0,.213-.049.213-.213v-20.883h6.535v15.484c0,.164.049.213.213.213h10.8v-15.7l96.458.071c2.94,0,5.745.071,8.736.071H172.6c2.8,0,.859-.13,2.314,2.09a4.055,4.055,0,0,0,1.064,1.138c1.673,1.149,3.347-.089,4.105-1.569a7.114,7.114,0,0,0,.543-1.659h3.338a4.124,4.124,0,0,0,.354,1.35c.916,2.322,3.389,3.273,5.015,1.107a5.768,5.768,0,0,0,1.023-2.458h3.552a8.71,8.71,0,0,0,.875,1.54,7.467,7.467,0,0,0,.485.722,6.172,6.172,0,0,1,.487.721H205.84c.218.935.434,1.844.7,2.708a32.664,32.664,0,0,0,4.028,8.757l1.827,2.435c.28.329.526.579.814.89l1.7,1.705a29.114,29.114,0,0,0,7.214,4.791,35.715,35.715,0,0,0,14.041,3.077,42.877,42.877,0,0,0,6.078-.315,29.725,29.725,0,0,0,13.324-5.214c.4-.293.788-.571,1.174-.886l1.117-.942c.425-.331.662-.684,1.065-.995a2.231,2.231,0,0,0,.508-.486l3.256-3.988a27.357,27.357,0,0,0,2.29-3.89c.131-.26.208-.4.318-.676.1-.249.233-.481.335-.73.41-1,.787-1.931,1.137-2.982a38.98,38.98,0,0,0,1.622-6.617c1.7-11.632-.355-24.441-7.557-33.314-.955-1.176-1.964-2.229-3.023-3.3a31.793,31.793,0,0,0-6.14-4.443,27.635,27.635,0,0,0-6.029-2.423,33.566,33.566,0,0,0-21,1.3,29.574,29.574,0,0,0-6.747,3.836,31.436,31.436,0,0,0-3.7,3.331,27.731,27.731,0,0,0-4.506,6.147,33.944,33.944,0,0,0-3.132,7.451c-.137.493-.259.886-.385,1.392a11.992,11.992,0,0,0-.341,1.435Z" transform="translate(-0.207 -5786.017)" fill="#fbac1a" fill-rule="evenodd"/>
      <path id="Union_1" data-name="Union 1" d="M114.813,42.02a16.821,16.821,0,0,1-1.095-7.144h0a14.191,14.191,0,0,1,3.387-9.114,12.755,12.755,0,0,1,2.111-2.008,13.025,13.025,0,0,1,2.077-1.26,12.444,12.444,0,0,1,6.416-1.326,10.843,10.843,0,0,1,8.616,4.169,4.094,4.094,0,0,0,.4.448c.046-.559.193-1.3.272-1.859.046-.327.1-.665.132-.933.04-.3.016-.689.306-.689h6.392V48.94H136.66V45.1a12.717,12.717,0,0,1-9.518,4.546C121.33,49.65,116.807,46.766,114.813,42.02Zm14.177,1.662a7.8,7.8,0,0,0,5.137-1.611,6.826,6.826,0,0,0,1.554-1.714,7.2,7.2,0,0,0,.98-2.287v-5.54a5.888,5.888,0,0,0-1.008-2.189,7.372,7.372,0,0,0-1.579-1.616,8.274,8.274,0,0,0-5.724-1.664,7.565,7.565,0,0,0-6.667,4.7,8.6,8.6,0,0,0-.648,3.827h0A8.192,8.192,0,0,0,128.99,43.683Zm-69.7,4.285a10.24,10.24,0,0,1-1.053-.651,12.18,12.18,0,0,1-3.324-3.495,13.254,13.254,0,0,1-1.81-5.009,19.871,19.871,0,0,1-.253-3.157h0a16.751,16.751,0,0,1,1.014-5.875,14.349,14.349,0,0,1,3.87-5.506,13.6,13.6,0,0,1,2.549-1.712,14.119,14.119,0,0,1,9.686-.971,8.826,8.826,0,0,1,2.392,1.017,14.5,14.5,0,0,1,3.573,3.245c0-.6.26-2.039.367-2.829.037-.272-.013-.723.272-.723h6.251c.163,0,.213.049.213.213V48.939H75.86V45.1c-.262.176-.252.242-.447.477a8.041,8.041,0,0,1-.92.855c-.163.152-.289.236-.463.389l-1.581,1.118a13.624,13.624,0,0,1-3.094,1.31,13.381,13.381,0,0,1-3.232.381A14.433,14.433,0,0,1,59.287,47.967Zm2.72-7.337a6.256,6.256,0,0,0,1.015,1.045c3.136,3.053,9.264,2.529,11.574-.961A7.147,7.147,0,0,0,75.86,37.93V32.673a6.1,6.1,0,0,0-.994-2.273,6.98,6.98,0,0,0-1.573-1.624,7.944,7.944,0,0,0-4.749-1.714,7.212,7.212,0,0,0-4.1.8,7.853,7.853,0,0,0-4.124,5.679,13.51,13.51,0,0,0-.162,1.756A8.636,8.636,0,0,0,62.007,40.63Zm114.288,8.309V22.517c0-.164.05-.213.213-.213h6.819c.164,0,.213.049.213.213V48.726c0,.164-.049.213-.213.213ZM0,48.939H0V1.633c.219.059.161.062.275.223L1.507,3.608c.238.357.455.66.707,1s.467.675.7,1l9.994,14.155C14.253,21.56,15.8,23.978,17.17,25.8l4.253,6.046c.248.358.471.629.711.994a5.624,5.624,0,0,0,.739.966l4.375-6.066c2.249-3.258,4.881-6.765,7.2-10.057,1.849-2.621,4-5.482,5.781-8.069L45.3,2.537c.3-.4.475-.817.8-.9V48.939H38.924c-.345,0-.213-.748-.213-1.42V23.013c-.265.177-3.544,4.953-4.02,5.64L27.73,38.526c-.508.771-4.763,6.845-5,7l-4.9-6.749c-.316-.449-.628-.851-.952-1.321l-4.4-6.108c-.172-.25-.307-.438-.469-.667l-4.83-6.677V48.939Zm209.82,0V31.679A4.689,4.689,0,0,0,208.6,28.5c-1.538-1.533-4.545-1.4-6.2-.414a7.963,7.963,0,0,0-3.339,3.906,11.255,11.255,0,0,0-.807,2.815c-.277,2.028-.145,9.536-.145,12.569,0,.7.138,1.563-.213,1.563h-7.033V0h7.032V26.778l.78-1.138a11.351,11.351,0,0,1,8.88-4.4h1.35a8.53,8.53,0,0,1,6.02,2.574,7.183,7.183,0,0,1,1.642,2.62,11.129,11.129,0,0,1,.507,3.755V48.725c0,.164-.05.213-.213.213Zm-54.692,0V27.986h-4.546V22.516c0-.164.049-.213.213-.213h4.333V10.726h7.245V22.3h6.677c.163,0,.213.049.213.213v5.469h-6.89V48.939Zm-60.872,0V28.7H89.781V22.3h4.475V12.146h0A15.959,15.959,0,0,1,95.322,6.11a10.664,10.664,0,0,1,2.253-3.358,3.417,3.417,0,0,1,.384-.326c.16-.129.2-.186.385-.326,3.033-2.288,7.247-2.46,10.884-1.446a9.588,9.588,0,0,1,1.436.553l1.278.711c-.243.459-.486.844-.759,1.3s-.5.83-.773,1.287L109.239,6.46a2.939,2.939,0,0,0-.351.643c-.261-.069-.324-.231-.513-.41a1.637,1.637,0,0,0-.527-.325,4.978,4.978,0,0,0-4.15.233c-1.6.969-2.2,2.835-2.2,4.907V22.3h8.239v6.179c0,.164-.049.213-.213.213H101.5v20.03c0,.164-.049.213-.213.213Zm82.039-26.422h0Zm.939-6.977a3.224,3.224,0,0,1-1.223-2.9h0c0-1.971,2.163-3.622,3.906-3.622a4.02,4.02,0,0,1,2.994,1.125,4.362,4.362,0,0,1,.819,1.027,3.677,3.677,0,0,1,.377,2.038c0,1.756-1.9,3.425-4.05,3.424A4.263,4.263,0,0,1,177.234,15.54Z" transform="translate(25.857)" fill="#243941"/>
    </g>
  </g>
</svg>
