<svg xmlns="http://www.w3.org/2000/svg" width="22.974" height="28.718" viewBox="358.013 410.141 22.974 28.718"><g data-name="user_solid"><path d="M358.013 434.734a7.362 7.362 0 0 1 7.362-7.362h8.25a7.362 7.362 0 0 1 7.362 7.362c0 1.677-1.135 3.133-2.79 3.408a53.964 53.964 0 0 1-8.697.717c-3.553 0-6.626-.374-8.697-.717-1.655-.275-2.79-1.73-2.79-3.408Z" fill="#878888" fill-rule="evenodd" data-name="Path 5974"/><path d="M362.32 417.32a7.18 7.18 0 1 1 14.36 0 7.18 7.18 0 0 1-14.36 0Z" fill="#878888" fill-rule="evenodd" data-name="Path 5975"/></g></svg>