<svg xmlns="http://www.w3.org/2000/svg" width="21.946" height="21.946" viewBox="17 191 21.946 21.946"><g data-name="__TEMP__SVG__"><path d="M26.876 198.681h2.194v-2.195h-2.194m1.097 14.266c-4.84 0-8.778-3.94-8.778-8.779 0-4.84 3.939-8.778 8.778-8.778 4.84 0 8.779 3.939 8.779 8.778 0 4.84-3.94 8.779-8.779 8.779m0-19.752C21.913 191 17 195.913 17 201.973c0 6.06 4.913 10.973 10.973 10.973 6.06 0 10.973-4.913 10.973-10.973 0-6.06-4.913-10.973-10.973-10.973m-1.097 16.46h2.194v-6.584h-2.194v6.584Z" fill="#243840" fill-rule="evenodd" data-name="Path 6216"/></g></svg>