<svg xmlns="http://www.w3.org/2000/svg" width="30.675" height="32.635" viewBox="-0.004 0.141 30.675 32.635"><g data-name="_2587379357760"><path d="M9.358 25.5h11.989v1.046H9.358v-1.047Zm2.664-11.513h6.66c-.38.57-2.759 2.093-2.759 2.854 0 1.713.19 1.237 1.332 2.379l2.284 1.998c.951.666.76 1.807.76 3.044h-9.8c0-2.664-.19-2.283 1.238-3.52l2.093-1.903c.951-.951.951-.476.951-1.998 0-.666-.666-1.047-1.332-1.618l-1.522-1.332Zm7.802-1.047h-8.848c-.666 0-.476-2.188-.476-2.76h9.8c0 .476.095 2.76-.476 2.76ZM9.358 7.992h11.989V9.04H9.358V7.992Zm-1.047-.19c0 .951-.285 2.379 1.047 2.379 0 1.712-.19 2.474.666 3.615.19.286 1.237 1.142 1.522 1.332l.571.571c.19.19.19.19.38.286.191.19 1.238.951 1.238 1.141 0 .666-.095.476-.571.952l-2.474 2.188-.285.286c-1.237 1.046-1.047 2.378-1.047 3.9-1.332 0-1.047 1.428-1.047 2.38 0 .475.571.95 1.047.95h11.989c1.332 0 1.046-1.426 1.046-2.283 0-.57-.476-1.046-1.046-1.046 0-1.713.19-2.379-.666-3.52-.19-.286-.381-.286-.571-.572l-1.903-1.617-.286-.286-.57-.57c-.381-.286-.286-.19-.286-.762 0-.19.666-.666.856-.856l1.523-1.332c.19-.19.38-.285.57-.57.381-.381 1.333-.952 1.333-2.19v-1.902c1.332 0 1.046-1.332 1.046-2.379 0-.476-.57-.951-1.046-.951H9.453c-.76 0-1.237.57-1.237.951Z" fill="#243941" fill-rule="evenodd" data-name="Path 2799"/><path d="M12.498.997c.19.285 1.142.951 1.332 1.237-.666 0-2.379.38-2.95.57-1.807.572-3.9 1.618-5.233 2.76C4.41 6.706 3.65 7.372 2.603 8.894c-.19.38-.476.761-.666 1.142C1.27 11.273.7 12.51.414 13.842-.918 19.55.985 25.354 5.362 29.16c.19.19.285.286.476.38.19.191.285.286.57.381 2.38 1.618 5.329 2.855 8.373 2.855 2.855 0 4.663-.286 7.041-1.427 2.284-1.047 4.567-2.95 5.995-5.043.095-.19.285-.286.38-.571 1.522-2.569 2.379-4.852 2.379-8.373-1.332 0-1.142-.095-1.142.666.095 3.045-1.713 7.041-3.901 9.23-.951.95-1.713 1.617-2.854 2.283-1.808 1.046-4.282 2.093-6.756 2.093-2.569 0-4.567-.19-6.755-1.332-3.045-1.522-5.328-3.71-6.756-6.85-1.046-2.284-1.332-3.902-1.332-6.566 0-2.759 1.618-6.85 3.52-8.753.191-.19.191-.286.381-.476.286-.285.952-.856 1.237-1.142 1.808-1.617 5.424-3.14 7.612-3.14-.285.381-1.142 1.237-1.237 1.618.38.095.571.57.856.666.096-.38 2.189-2.474 2.189-2.76 0-.285 0-.38-.19-.665L12.973.14c-.19.095-.571.666-.666.856h.19Z" fill="#243941" fill-rule="evenodd" data-name="Path 2800"/><path d="m16.875 3.14 1.046.095c0-1.237.571-1.047-.38-1.237-.095 0-.286-.095-.38-.095-.286 0-.381-.095-.381 1.142Z" fill="#243941" fill-rule="evenodd" data-name="Path 2801"/><path d="m29.434 15.509.095 1.047 1.142-.096c0-.38-.095-.856-.095-1.237-.38.19-1.142 0-1.047.286Z" fill="#243941" fill-rule="evenodd" data-name="Path 2802"/><path d="M18.873 3.52c.38 0 .666.19 1.046.286.096-.38.286-.761.286-1.047-.476 0-.666-.285-1.142-.285 0 .285-.19.761-.285 1.046Z" fill="#243941" fill-rule="evenodd" data-name="Path 2803"/><path d="M20.87 4.282c.381.095.572.285.952.38.095-.19.476-.856.476-1.046-.38-.096-.761-.381-1.047-.476-.095.38-.38.666-.38 1.046Z" fill="#243941" fill-rule="evenodd" data-name="Path 2804"/><path d="M28.958 13.32c0 .096.19.952.286 1.047.285-.095.76-.19 1.046-.19 0-.286-.19-.856-.285-1.142-.38 0-.666.19-1.047.286Z" fill="#243941" fill-rule="evenodd" data-name="Path 2805"/><path d="M24.486 6.375c.096.19.19.285.381.38.19.096.285.286.476.381.19-.285.57-.57.666-.856-.095-.095-.761-.761-.857-.761-.095.285-.475.57-.666.856Z" fill="#243941" fill-rule="evenodd" data-name="Path 2806"/><path d="M22.774 5.233c.38.095.57.38.856.476.19-.095.571-.666.666-.857-.285-.19-.666-.38-.951-.666-.096.19-.19.286-.286.476-.095.19-.19.286-.285.571Z" fill="#243941" fill-rule="evenodd" data-name="Path 2807"/><path d="M26.009 7.802c.095.19.57.761.666.856.285-.095.666-.475.856-.666-.095-.19-.19-.285-.285-.475-.096-.096-.286-.381-.38-.476-.191.095-.286.19-.477.38l-.38.381Z" fill="#243941" fill-rule="evenodd" data-name="Path 2808"/><path d="m27.246 9.515.475.856.952-.476c-.095-.285-.38-.76-.571-1.046-.19.095-.761.475-.856.666Z" fill="#243941" fill-rule="evenodd" data-name="Path 2809"/><path d="M28.292 11.322c0 .476.286.571.286 1.047.19 0 .856-.285 1.046-.38-.095-.381-.285-.667-.38-1.047-.476 0-.666.285-1.047.38Z" fill="#243941" fill-rule="evenodd" data-name="Path 2810"/><path d="M14.781 20.076h1.142v-1.142h-1.142v1.142Z" fill="#243941" fill-rule="evenodd" data-name="Path 2811"/><path d="M14.781 22.17h1.142v-1.143h-1.142v1.142Z" fill="#243941" fill-rule="evenodd" data-name="Path 2812"/></g></svg>