<svg xmlns="http://www.w3.org/2000/svg" width="20.377" height="20.376" viewBox="51 843 20.377 20.376"><g data-name="link"><path d="M69.692 844.684a5.765 5.765 0 0 0-8.143 0l-4.072 4.072.958.958 4.072-4.072a4.404 4.404 0 1 1 6.227 6.228l-4.071 4.071.957.958 4.072-4.071a5.765 5.765 0 0 0 0-8.144Z" fill="#fbac1a" fill-rule="evenodd" data-name="Path 5970"/><path d="M59.872 860.732a4.404 4.404 0 0 1-6.227-6.228l3.832-3.832-.958-.958-3.832 3.832a5.758 5.758 0 1 0 8.143 8.144l3.833-3.832-.959-.959-3.832 3.833Z" fill="#fbac1a" fill-rule="evenodd" data-name="Path 5971"/><path d="m55.8 857.618 9.581-9.58.958.957-9.58 9.581-.959-.958Z" fill="#fbac1a" fill-rule="evenodd" data-name="Path 5972"/></g></svg>