<svg xmlns="http://www.w3.org/2000/svg" width="22.493" height="22.493" viewBox="18.753 236.743 22.493 22.493"><g data-name="Group 5444"><g data-name="sun"><g data-name="Group 5442"><g data-name="Group 5441"><path d="M30 240.867a7.13 7.13 0 0 0-7.123 7.123A7.13 7.13 0 0 0 30 255.113a7.13 7.13 0 0 0 7.123-7.123A7.13 7.13 0 0 0 30 240.867Zm0 12.746a5.623 5.623 0 1 1 5.623-5.623A5.63 5.63 0 0 1 30 253.613Z" fill="#fbac1a" fill-rule="evenodd" data-name="Path 6226"/><path d="M29.25 236.743h1.5v2.25h-1.5v-2.25Z" fill="#fbac1a" fill-rule="evenodd" data-name="Path 6227"/><path d="M29.25 256.987h1.5v2.25h-1.5v-2.25Z" fill="#fbac1a" fill-rule="evenodd" data-name="Path 6228"/><path d="M38.997 247.24h2.25v1.5h-2.25v-1.5Z" fill="#fbac1a" fill-rule="evenodd" data-name="Path 6229"/><path d="M18.753 247.24h2.25v1.5h-2.25v-1.5Z" fill="#fbac1a" fill-rule="evenodd" data-name="Path 6230"/><path d="m36.218 255.268 1.06-1.06 1.5 1.5-1.06 1.06-1.5-1.5Z" fill="#fbac1a" fill-rule="evenodd" data-name="Path 6231"/><path d="m21.222 240.272 1.06-1.06 1.5 1.5-1.06 1.06-1.5-1.5Z" fill="#fbac1a" fill-rule="evenodd" data-name="Path 6232"/><path d="m21.222 255.707 1.5-1.5 1.06 1.06-1.5 1.5-1.06-1.06Z" fill="#fbac1a" fill-rule="evenodd" data-name="Path 6233"/><path d="m36.218 240.712 1.5-1.5 1.06 1.06-1.5 1.5-1.06-1.06Z" fill="#fbac1a" fill-rule="evenodd" data-name="Path 6234"/></g></g></g><g data-name="time-outline"><path d="M29.582 245.55v3.723h2.4" stroke-linejoin="round" stroke-linecap="round" stroke-width="1.5" stroke="#fbac1a" fill="transparent" data-name="Path 6241"/></g></g></svg>