<svg xmlns="http://www.w3.org/2000/svg" width="13.088" height="13.088" viewBox="0 0 13.088 13.088">
  <path id="Path_11" data-name="Path 11" d="M12.235,6.048V2.134A2.134,2.134,0,0,0,8,1.744a2.137,2.137,0,0,0-1.744,2.1.427.427,0,0,0,.427.427H10.1a.427.427,0,0,0,.427-.427A2.137,2.137,0,0,0,8.875,1.763a1.28,1.28,0,0,1,2.506.371V5.975H1.28A1.28,1.28,0,0,0,.854,8.462v.785a2.991,2.991,0,0,0,1.707,2.7v.715a.427.427,0,1,0,.854,0V12.2a3,3,0,0,0,.427.031H9.247a3,3,0,0,0,.427-.031v.457a.427.427,0,1,0,.854,0v-.715a2.991,2.991,0,0,0,1.707-2.7V8.462a1.28,1.28,0,0,0,0-2.414ZM9.6,3.414H7.186a1.281,1.281,0,0,1,2.414,0Zm1.78,5.833a2.136,2.136,0,0,1-2.134,2.134H3.841A2.136,2.136,0,0,1,1.707,9.247V8.536h9.674v.711Zm.427-1.565H1.28a.427.427,0,1,1,0-.854H11.808a.427.427,0,1,1,0,.854Z" fill="#fbac1a"/>
</svg>
