<svg xmlns="http://www.w3.org/2000/svg" width="14.059" height="11.766" viewBox="0 0 14.059 11.766">
  <path id="bed" d="M12.04,4.293H6.306A1.72,1.72,0,0,0,4.623,5.661a1.978,1.978,0,0,0-.9-.221A2.007,2.007,0,0,0,1.72,7.446a1.986,1.986,0,0,0,.2.86H1.147V2H0V13.466H1.147v-1.72H12.613v1.72h1.147V6.013A1.72,1.72,0,0,0,12.04,4.293ZM5.733,6.013a.573.573,0,0,1,.573-.573H12.04a.573.573,0,0,1,.573.573V8.306H5.733ZM2.867,7.446a.86.86,0,1,1,.86.86A.86.86,0,0,1,2.867,7.446ZM1.147,10.6V9.453H12.613V10.6Z" transform="translate(0.15 -1.85)" fill="#fbac1a" stroke="#fff" stroke-width="0.3"/>
</svg>
