<svg xmlns="http://www.w3.org/2000/svg" width="30.898" height="30.898" viewBox="35 510 30.898 30.898"><path d="M36.868 537.522V520.8H64.03v16.722c0 .478-.136.853-.396 1.112-.26.26-.634.396-1.112.396H38.376c-.478 0-.853-.136-1.112-.396-.26-.26-.396-.634-.396-1.112Zm11.197-6.808c-.148-.22-1.083-1.135-1.75-1.787a64.463 64.463 0 0 1-.548-.541 6.22 6.22 0 0 1-.116-.12c-.204-.215-.381-.402-.784-.402-.294 0-.524.101-.679.276-.167.188-.256.465-.256.798 0 .39.977 1.324 1.589 1.908.136.13.256.245.33.318.088.089.195.201.317.329.584.612 1.518 1.589 1.909 1.589h.026c.358 0 .46 0 .81-.266l1.953-1.679c.079-.061.119-.1.163-.144.035-.034.071-.071.12-.114.075-.067.117-.096.163-.128.03-.022.064-.045.115-.089l3.385-2.902c.057-.047.096-.086.136-.126.043-.043.087-.087.15-.14.131-.112.28-.229.436-.353.67-.533 1.502-1.195 1.502-1.692a.916.916 0 0 0-.21-.576 1.124 1.124 0 0 0-.562-.372c-.499-.14-.947.274-1.397.689-.112.104-.225.208-.343.307l-1.388 1.186c-.09.084-.137.117-.189.154a1.742 1.742 0 0 0-.126.098l-3.347 2.875a8.46 8.46 0 0 0-.462.393 6.113 6.113 0 0 1-.694.562l-.151.1-.102-.15ZM36.868 515.61c0-.489.13-.864.387-1.12.257-.258.632-.388 1.121-.388h24.146c.478 0 .853.136 1.112.396.26.26.396.634.396 1.112v3.323H36.868v-3.323Zm5.948-4.815v1.439h-4.928c-.706 0-1.427.368-1.974.914-.546.547-.914 1.268-.914 1.974v22.889c0 .497.19 1.012.496 1.465.32.475.768.878 1.26 1.119.156.076.375.162.607.224.178.048.362.08.525.08H63.01c.164 0 .347-.032.525-.08.233-.062.452-.148.607-.224a3.342 3.342 0 0 0 1.26-1.118c.307-.454.496-.97.496-1.466v-22.889c0-.706-.368-1.427-.914-1.973-.547-.547-1.268-.915-1.974-.915h-4.928v-1.438a.713.713 0 0 0-.296-.557c-.186-.145-.45-.238-.777-.238-.168 0-.365.113-.523.272-.159.158-.272.355-.272.523v1.438h-11.53v-1.438a.713.713 0 0 0-.296-.557c-.186-.145-.451-.238-.778-.238-.168 0-.365.113-.523.27v.002c-.158.158-.271.355-.271.523Z" fill="#243941" fill-rule="evenodd" data-name="Path 2876"/></svg>