<svg xmlns="http://www.w3.org/2000/svg" width="22.892" height="22.892" viewBox="41.539 675.554 22.892 22.892"><g data-name="building_outline"><path d="M48.407 681.277c0-.632.512-1.144 1.144-1.144h1.145a1.145 1.145 0 1 1 0 2.289H49.55a1.145 1.145 0 0 1-1.144-1.145Z" fill="#fbac1a" fill-rule="evenodd" data-name="Path 2626"/><path d="M49.551 684.71a1.145 1.145 0 1 0 0 2.29h1.145a1.145 1.145 0 1 0 0-2.29H49.55Z" fill="#fbac1a" fill-rule="evenodd" data-name="Path 2627"/><path d="M54.13 681.277c0-.632.512-1.144 1.144-1.144h1.145a1.145 1.145 0 1 1 0 2.289h-1.145a1.145 1.145 0 0 1-1.144-1.145Z" fill="#fbac1a" fill-rule="evenodd" data-name="Path 2628"/><path d="M55.274 684.71a1.145 1.145 0 1 0 0 2.29h1.145a1.145 1.145 0 1 0 0-2.29h-1.145Z" fill="#fbac1a" fill-rule="evenodd" data-name="Path 2629"/><path d="M41.54 697.587c0-.474.384-.858.858-.858h1.43V684.71c0-4.317 0-6.475 1.341-7.816 1.341-1.34 3.5-1.34 7.816-1.34 4.317 0 6.475 0 7.816 1.34 1.34 1.341 1.34 3.5 1.34 7.816v12.018h1.431a.858.858 0 0 1 0 1.717H42.398a.858.858 0 0 1-.859-.859Zm9.728-.858h3.434v-4.006a1.717 1.717 0 0 0-3.434 0v4.006Zm5.15 0h4.007V684.71c0-2.207-.004-3.69-.152-4.795-.143-1.056-.388-1.509-.686-1.807-.299-.298-.75-.544-1.807-.686-1.106-.148-2.588-.152-4.795-.152s-3.689.004-4.795.152c-1.056.142-1.508.388-1.807.686-.298.298-.543.75-.685 1.807-.149 1.106-.153 2.588-.153 4.795v12.018h4.006v-4.006a3.434 3.434 0 1 1 6.868 0v4.006Z" fill="#fbac1a" fill-rule="evenodd" data-name="Path 2630"/></g></svg>