<svg xmlns="http://www.w3.org/2000/svg" width="38.562" height="38.562" viewBox="331.719 1988.719 38.562 38.562"><g data-name="calendar-plus"><g data-name="Group 5665"><path d="M351 2004.425c.794 0 1.438.644 1.438 1.438v4.314h4.314a1.438 1.438 0 1 1 0 2.876h-4.314v4.315a1.438 1.438 0 0 1-2.876 0v-4.315h-4.314a1.438 1.438 0 0 1 0-2.876h4.314v-4.314c0-.794.644-1.438 1.438-1.438Z" fill="#fff" fill-rule="evenodd" data-name="Path 6272"/><path d="M340.154 1988.719c.666 0 1.205.54 1.205 1.205v1.205h19.282v-1.205a1.205 1.205 0 0 1 2.41 0v1.205h2.41a4.82 4.82 0 0 1 4.82 4.82v26.512a4.82 4.82 0 0 1-4.82 4.82h-28.922a4.82 4.82 0 0 1-4.82-4.82v-26.512a4.82 4.82 0 0 1 4.82-4.82h2.41v-1.205c0-.665.54-1.205 1.205-1.205Zm-6.025 9.64v24.102a2.41 2.41 0 0 0 2.41 2.41h28.922a2.41 2.41 0 0 0 2.41-2.41v-24.102h-33.742Z" fill="#fff" fill-rule="evenodd" data-name="Path 6273"/></g></g></svg>