<svg xmlns="http://www.w3.org/2000/svg" width="27.338" height="25.512" viewBox="0 0 27.338 25.512">
  <g id="chat" transform="translate(0 -3)">
    <g id="Group_4300" data-name="Group 4300" transform="translate(0 3)">
      <path id="Path_2594" data-name="Path 2594" d="M4.576,21.614a1.709,1.709,0,0,1,.49,1.369,18.744,18.744,0,0,1-.68,3.417,20.178,20.178,0,0,0,4.5-1.526,1.709,1.709,0,0,1,1.213-.126,13.772,13.772,0,0,0,3.569.465c6.828,0,11.96-4.8,11.96-10.252S20.5,4.709,13.669,4.709,1.709,9.506,1.709,14.96A9.39,9.39,0,0,0,4.576,21.614Zm-.842,6.672q-.607.12-1.218.22a.444.444,0,0,1-.466-.619q.228-.537.417-1.088l.005-.017a17.847,17.847,0,0,0,.9-3.962A11.1,11.1,0,0,1,0,14.96C0,8.355,6.12,3,13.669,3S27.338,8.355,27.338,14.96s-6.12,11.96-13.669,11.96a15.48,15.48,0,0,1-4.01-.523A23.355,23.355,0,0,1,3.733,28.286Z" transform="translate(0 -3)" fill="#243941"/>
    </g>
  </g>
</svg>
