<svg xmlns="http://www.w3.org/2000/svg" width="19.368" height="19.368" viewBox="0 0 19.368 19.368">
  <g id="location-med-2_outline" transform="translate(-5.25 -5.25)">
    <path id="Path_2831" data-name="Path 2831" d="M7.2,17.912A2.594,2.594,0,0,0,6,19.9c0,2.193,4,3.971,8.934,3.971s8.934-1.778,8.934-3.971a2.594,2.594,0,0,0-1.2-1.985M14.934,9.474v4.963m-2.482-2.482h4.963m3.474.221c0,3.411-2.667,6.176-5.956,7.721-3.289-1.544-5.956-4.309-5.956-7.721A6.069,6.069,0,0,1,14.934,6,6.069,6.069,0,0,1,20.89,12.176Z" transform="translate(0 0)" fill="none" stroke="#fb671a" stroke-linecap="round" stroke-linejoin="round" stroke-width="1.5"/>
  </g>
</svg>
