<svg xmlns="http://www.w3.org/2000/svg" width="33.211" height="31.123" viewBox="34 311.497 33.211 31.123"><path d="M34.001 320.841v13.327c0 1.166.335 2.205.943 3.03.604.818 1.482 1.429 2.572 1.742.792.228 2.957.2 4.665.176.664-.008 1.26-.016 1.688-.008h.029c.214.005.317.007.435.052.13.049.188.108.301.222l.044.044.697.79c.232.23.446.455.654.674.88.928 1.64 1.73 2.737 1.73.401 0 .705-.097.956-.244.266-.155.495-.377.722-.605l2.179-2.18.107-.113c.175-.184.259-.272.437-.331.143-.048.272-.045.518-.038l.304.005c.665.006 1.33.004 1.994.002l.966-.003c1.162 0 2 0 2.689-.125.671-.122 1.236-.367 1.888-.858a4.805 4.805 0 0 0 1.359-1.648 4.43 4.43 0 0 0 .49-2.002v-5.611a.671.671 0 0 0-.243-.503.93.93 0 0 0-.388-.202.798.798 0 0 0-.418.005.732.732 0 0 0-.443.405c-.13.27-.09 2.93-.07 4.206.005.278.008.492.008.609h.001c0 .698-.008 1.19-.1 1.635-.093.462-.27.843-.603 1.294a2.698 2.698 0 0 1-.45.48c-.168.14-.356.26-.576.367v-.001c-.274.134-.48.215-.723.262-.231.046-.487.059-.864.056-.754-.004-1.508-.002-2.263-.001l-1.088.002c-.33 0-.749-.005-1.107-.01-.864-.011-1.284-.017-1.575.1-.265.108-.505.358-.972.847-.229.238-.508.53-.872.89-.168.165-.333.36-.498.554-.373.44-.75.883-1.28 1.163l-.227.12-2.542-2.5h-.003c-.164-.165-.332-.341-.475-.491-.322-.338-.49-.515-.695-.59-.252-.09-.652-.089-1.493-.086l-.574.003c-.352 0-.742.01-1.178.02-1.246.031-2.833.07-3.53-.056-.665-.119-1.314-.498-1.782-1.036-.438-.503-.722-1.147-.722-1.853v-14.262c0-.585.287-1.207.725-1.71.432-.495 1.018-.883 1.625-1.009.98-.203 3.985-.163 6.737-.126 1.759.024 3.412.046 4.348.003.37-.017.59-.199.68-.429a.853.853 0 0 0 .055-.336.969.969 0 0 0-.078-.347c-.108-.25-.332-.446-.646-.446H38.712a4.593 4.593 0 0 0-3.348 1.422c-.847.886-1.364 2.122-1.364 3.523Zm19.895-1.946c0-.172.047-.388.113-.593.076-.236.182-.47.268-.601.22-.34 2.01-2.103 2.956-3.035.167-.165.3-.295.487-.483.72-.72 1.293-1.13 1.915-1.175.634-.046 1.243.287 2.015 1.058l2.728 2.728c.142.143.248.241.343.33.594.558.87.816.87 1.927 0 .814-.48 1.257-.919 1.661-.07.065-.14.128-.217.206l-2.688 2.689a9.695 9.695 0 0 0-.25.259c-.505.534-.791.838-1.89.838-.93 0-1.97-1.098-2.8-1.975-.157-.164-.305-.32-.47-.486-.08-.081-.191-.19-.318-.316-.555-.546-1.427-1.405-1.709-1.784a2.424 2.424 0 0 1-.311-.61 1.999 1.999 0 0 1-.124-.638Zm-1.553-.156c0 1.823.932 2.707 2.151 3.863.257.243.525.497.765.738.185.185.41.42.634.652 1.483 1.543 2.857 2.974 5.315 2.045.81-.306 1.739-1.281 2.492-2.072.185-.194.36-.378.529-.546h-.001c.177-.178.416-.408.656-.64.441-.425.889-.857 1.278-1.294.677-.762 1.036-1.672 1.048-2.58.013-.883-.302-1.77-.97-2.521a24 24 0 0 0-1.28-1.295c-.24-.232-.478-.462-.655-.639-.138-.138-.411-.415-.683-.691-.414-.42-.821-.833-1.258-1.255-.669-.646-1.602-.987-2.538-1.006-.925-.02-1.847.274-2.513.894l-3.887 3.89c-.326.322-.61.72-.804 1.165-.175.4-.28.837-.28 1.292Zm6.624 2.884c0 .153.013.298.051.426a.75.75 0 0 0 .731.546.843.843 0 0 0 .571-.224c.156-.15.26-.374.26-.67 0-.435-.213-.706-.483-.82a.879.879 0 0 0-.676-.004c-.256.106-.454.355-.454.746Zm0-5.611c0 .231-.01.531-.02.835-.033.968-.067 1.98.258 2.34a.715.715 0 0 0 .372.192c.147.032.308.03.458-.02a.7.7 0 0 0 .37-.303c.118-.19.192-.47.192-.863 0-.204.007-.48.014-.75.005-.194.01-.383.01-.64 0-.932-.119-1.607-.995-1.607a.594.594 0 0 0-.44.224.915.915 0 0 0-.22.592Zm-11.915 11.375c0 1.822 1.854 2.184 2.71 1.387 1.209-1.123.377-2.946-1.074-2.946-.835 0-1.637.716-1.637 1.56Zm5.923.078c0 .473.214.884.524 1.191 1.61 1.603 3.804-.755 2.381-2.304a1.62 1.62 0 0 0-2.343-.04c-.172.17-.276.239-.378.48a5.824 5.824 0 0 0-.184.673Zm-11.924 0c0 1.463 1.69 2.272 2.82 1.26 1.04-.932.451-2.897-1.183-2.897-.857 0-1.637.777-1.637 1.637Z" fill="#243941" fill-rule="evenodd" data-name="Path 2877"/></svg>