<svg xmlns="http://www.w3.org/2000/svg" width="19.465" height="19.465" viewBox="327.267 546.267 19.465 19.465"><g data-name="compare"><g data-name="Path 2813"><path d="M345.342 549.048h-6.952v-1.39a1.39 1.39 0 0 0-1.39-1.39h-8.342a1.39 1.39 0 0 0-1.39 1.39v13.904c0 .767.622 1.39 1.39 1.39h6.952v1.39c0 .768.622 1.39 1.39 1.39h8.342a1.39 1.39 0 0 0 1.39-1.39v-13.904a1.39 1.39 0 0 0-1.39-1.39Zm-16.684 6.257h4.289l-1.794 1.8.98.98 3.477-3.475-3.476-3.476-.98.98 1.793 1.8h-4.29v-6.256H337v13.904h-8.342v-6.257Zm8.342 9.037v-1.39a1.39 1.39 0 0 0 1.39-1.39v-11.124h6.952v6.257h-4.289l1.794-1.8-.98-.98-3.477 3.475 3.476 3.476.98-.98-1.793-1.8h4.29v6.256H337Z" fill="#243941" fill-rule="evenodd"/><path d="M345.342 549.048h-6.952v-1.39a1.39 1.39 0 0 0-1.39-1.39h-8.342a1.39 1.39 0 0 0-1.39 1.39v13.904c0 .767.622 1.39 1.39 1.39h6.952v1.39c0 .768.622 1.39 1.39 1.39h8.342a1.39 1.39 0 0 0 1.39-1.39v-13.904a1.39 1.39 0 0 0-1.39-1.39Zm-16.684 6.257h4.289l-1.794 1.8.98.98 3.477-3.475-3.476-3.476-.98.98 1.793 1.8h-4.29v-6.256H337v13.904h-8.342v-6.257Zm8.342 9.037v-1.39a1.39 1.39 0 0 0 1.39-1.39v-11.124h6.952v6.257h-4.289l1.794-1.8-.98-.98-3.477 3.475 3.476 3.476.98-.98-1.793-1.8h4.29v6.256H337Z" stroke-linejoin="round" stroke-linecap="round" stroke-width=".3" stroke="#fff" fill="transparent"/></g></g></svg>