<svg xmlns="http://www.w3.org/2000/svg" width="23.015" height="23.015" viewBox="28.992 289.992 23.015 23.015"><g data-name="__TEMP__SVG__"><path d="M40.5 289.992c-6.345 0-11.508 5.163-11.508 11.508v4.768c0 1.178 1.033 2.137 2.302 2.137h1.15a1.15 1.15 0 0 0 1.151-1.151v-5.919a1.15 1.15 0 0 0-1.15-1.15H31.4c.64-4.454 4.472-7.891 9.1-7.891 4.628 0 8.46 3.437 9.1 7.89h-1.045a1.15 1.15 0 0 0-1.15 1.151v7.07a2.304 2.304 0 0 1-2.302 2.301h-2.301v-1.15h-4.604v3.452h6.905a4.608 4.608 0 0 0 4.603-4.603c1.27 0 2.302-.959 2.302-2.137V301.5c0-6.345-5.163-11.508-11.508-11.508Z" fill="#fbac1a" fill-rule="evenodd" data-name="Path 6215"/></g></svg>