<svg xmlns="http://www.w3.org/2000/svg" width="39.947" height="39.947" viewBox="0 0 39.947 39.947">
  <path id="Path_2615" data-name="Path 2615" d="M7.035,19.305c0-8.751,8.506-14.778,17.19-11.219A12.683,12.683,0,0,1,27.014,9.8,12.235,12.235,0,1,1,7.035,19.305Zm8.753.164v-.491a3.4,3.4,0,0,1,3.19-3.19h.491a3.4,3.4,0,0,1,3.19,3.19v.491a3.4,3.4,0,0,1-3.19,3.19h-.491A3.4,3.4,0,0,1,15.788,19.469Zm-3.6-.245c0,5.826,7.305,9.587,11.964,4.929a6.883,6.883,0,0,0,1.895-3.34A7.005,7.005,0,0,0,12.4,17.636a9.219,9.219,0,0,0-.212,1.588ZM17.424,2.045V3.6a13.525,13.525,0,0,0-2.854.582,15.528,15.528,0,0,0-9.362,7.9A14.338,14.338,0,0,0,3.6,17.424c-1.485,0-3.6-.282-3.6,1.8s2.114,1.8,3.6,1.8c.052,2.322,1.517,5.537,2.863,7.444a15.37,15.37,0,0,0,1.615,1.9,16.064,16.064,0,0,0,6.43,3.876,14.127,14.127,0,0,0,2.915.6c0,1.485-.282,3.6,1.8,3.6s1.8-2.114,1.8-3.6a14.719,14.719,0,0,0,5.29-1.582,15.1,15.1,0,0,0,6.926-6.9,15.153,15.153,0,0,0,1.609-5.345c1.485,0,3.6.282,3.6-1.8s-2.114-1.8-3.6-1.8C34.8,15.137,33.3,11.851,31.984,9.98a15.154,15.154,0,0,0-5.617-4.772A14.367,14.367,0,0,0,21.023,3.6c0-1.485.282-3.6-1.8-3.6-1.213,0-1.8.829-1.8,2.045Z" transform="translate(0.75 0.75)" fill="#243941" stroke="#fff" stroke-width="1.5" fill-rule="evenodd"/>
</svg>
