<svg id="_2014182284688" xmlns="http://www.w3.org/2000/svg" width="27.414" height="27.422" viewBox="0 0 27.414 27.422">
  <path id="Path_24" data-name="Path 24" d="M.974,239.143V226.26H26.44v12.883a2.772,2.772,0,0,1-2.622,2.622H3.6a2.772,2.772,0,0,1-2.622-2.622Zm0-17.677a2.7,2.7,0,0,1,.991-1.93,3.326,3.326,0,0,1,2.454-.692c0,.921-.1,1.569.448,2.248a2.445,2.445,0,0,0,3.207.059c.593-.63.464-1.413.464-2.307H18.8v.974a1.783,1.783,0,0,0,1.648,1.873h.824a1.757,1.757,0,0,0,1.648-1.648v-1.2c1.361,0,2.553.27,3.148,1.421a2.833,2.833,0,0,1,.372,1.126v3.97H.974v-3.895Zm18.8-1.5v-2.921c0-1.017,2.172-1.061,2.172,0v3C21.947,221.061,19.774,221.088,19.774,219.968Zm-14.381,0v-2.921c0-1.072,2.172-.945,2.172-.15v3.146c0,1.018-2.172,1.044-2.172-.075Zm-.974-2.7v.674H3.6a3.776,3.776,0,0,0-3.6,3.82v17.078a3.809,3.809,0,0,0,3.895,3.895H23.519a3.812,3.812,0,0,0,3.895-3.895V221.766a3.767,3.767,0,0,0-3.6-3.82h-.9v-.9c0-2.26-4.12-2.4-4.12.15v.749H8.539v-.9c0-2.232-4.12-2.459-4.12.225Z" transform="translate(0 -215.316)" fill="#243941" fill-rule="evenodd"/>
  <path id="Path_25" data-name="Path 25" d="M227.413,804.878h2.622V807.5h-2.622Zm-.824-.824a31.913,31.913,0,0,0-.075,4.045.425.425,0,0,0,.375.375h3.6a.463.463,0,0,0,.524-.524V804.5c0-.252-.132-.524-.375-.524a34.6,34.6,0,0,0-4.045.075Z" transform="translate(-221.421 -790.789)" fill="#243941" fill-rule="evenodd"/>
  <path id="Path_26" data-name="Path 26" d="M228.529,1066.923h2.622v2.622h-2.622Zm-.9-.6v3.745a.425.425,0,0,0,.375.375h3.6a.463.463,0,0,0,.524-.524v-3.445a.463.463,0,0,0-.524-.524H228a.425.425,0,0,0-.375.375Z" transform="translate(-222.537 -1046.916)" fill="#243941" fill-rule="evenodd"/>
  <path id="Path_27" data-name="Path 27" d="M797.589,805.749h2.622v2.622h-2.622Zm-.9-.524v3.745c0,.242.272.375.524.375h3.445a.463.463,0,0,0,.524-.524v-3.445c0-.252-.132-.524-.375-.524h-3.745a.425.425,0,0,0-.375.375Z" transform="translate(-778.863 -791.659)" fill="#243941" fill-rule="evenodd"/>
  <path id="Path_28" data-name="Path 28" d="M513.059,1066.914h2.7v2.622h-2.7Zm-.9-.6v3.745a.425.425,0,0,0,.375.375h3.745a.425.425,0,0,0,.375-.375v-3.745c0-.242-.272-.375-.524-.375h-3.445c-.252,0-.524.132-.524.375Z" transform="translate(-500.7 -1046.907)" fill="#243941" fill-rule="evenodd"/>
  <path id="Path_29" data-name="Path 29" d="M513.049,805.739h2.7v2.622h-2.7Zm-.9-.524v3.6a.463.463,0,0,0,.524.524h3.445a.463.463,0,0,0,.524-.524v-3.6a.425.425,0,0,0-.375-.375h-3.745a.425.425,0,0,0-.375.375Z" transform="translate(-500.69 -791.649)" fill="#243941" fill-rule="evenodd"/>
  <path id="Path_30" data-name="Path 30" d="M798.573,1088.492c-.423-.283-.978-1.123-1.5-1.123-.3,0-.375.291-.375.524,0,.26.964,1.073,1.179,1.292.875.889.9.487,2.7-1.311l.969-.9c.484-.47.169-.95-.2-.95S798.956,1088.235,798.573,1088.492Z" transform="translate(-778.873 -1066.538)" fill="#243941" fill-rule="evenodd"/>
</svg>
