<svg xmlns="http://www.w3.org/2000/svg" width="27.293" height="27.282" viewBox="0 0 27.293 27.282">
  <g id="Layer_x0020_1" transform="translate(0 0)">
    <g id="_1954403841456" transform="translate(0 0)">
      <path id="Path_2644" data-name="Path 2644" d="M13.641,25.333a13.934,13.934,0,0,1-2.607-.316c-.365-.091-.767-.187-1.147-.314a11.714,11.714,0,0,1-7.622-8.455A11.472,11.472,0,0,1,3,8.847,11.636,11.636,0,0,1,16.2,2.253a12.08,12.08,0,0,1,5.679,3.09L22.9,6.515A11.5,11.5,0,0,1,24.263,8.8c.151.362.293.659.424,1.037a11.7,11.7,0,0,1,.551,5.106,12.692,12.692,0,0,1-.209,1.252,11.709,11.709,0,0,1-3.091,5.678L20.34,23.2a11.938,11.938,0,0,1-6.7,2.132ZM0,13.093a13.087,13.087,0,0,0,1.279,6.334,15.652,15.652,0,0,0,1.026,1.836,20.493,20.493,0,0,0,1.666,2.049c.164.164.264.2.43.362l1.335,1.1a13.448,13.448,0,0,0,7.357,2.508,12.96,12.96,0,0,0,6.585-1.393,2.539,2.539,0,0,0,.278-.148l2.48-1.661a12.763,12.763,0,0,0,1.618-1.609,12.817,12.817,0,0,0,1.928-3A13.627,13.627,0,0,0,26.024,7.9l-1.2-2.086L23.311,3.971a17.309,17.309,0,0,0-2.275-1.805A13.214,13.214,0,0,0,13.093,0,13.843,13.843,0,0,0,6.02,2.3,14.016,14.016,0,0,0,2.87,5.245,13.394,13.394,0,0,0,0,13.093Z" transform="translate(0 0)" fill="#243941" fill-rule="evenodd"/>
      <path id="Path_2645" data-name="Path 2645" d="M428.944,421.158a3.217,3.217,0,0,1-.305.669c-.106.217-.2.444-.305.669-.252.552-1.866,3.8-2,3.911a14.435,14.435,0,0,1-1.291.658l-3.258,1.614a2.755,2.755,0,0,1-.7.335c.23-.434.432-.83.634-1.315l1.294-2.6a14.784,14.784,0,0,1,.678-1.331,27.414,27.414,0,0,1,2.581-1.317l2.668-1.29Zm0,0ZM417.86,431.267a.985.985,0,0,0,.974.974,39.746,39.746,0,0,0,4.547-2.152c.67-.335,4.1-1.985,4.422-2.277.248-.227,1.976-3.821,2.277-4.422a40.194,40.194,0,0,0,2.152-4.547c0-.638-.448-.974-1.1-.974a17.326,17.326,0,0,0-2.233,1.056c-.883.442-6.316,3.073-6.646,3.4-.222.222-2.976,5.854-3.362,6.625a11.517,11.517,0,0,0-1.035,2.314Z" transform="translate(-411.405 -411.415)" fill="#243941" fill-rule="evenodd"/>
    </g>
  </g>
</svg>
