<svg xmlns="http://www.w3.org/2000/svg" width="26.391" height="24.743" viewBox="0 0 26.391 24.743">
  <g id="Group_4342" data-name="Group 4342" transform="translate(0 0)">
    <path id="Path_2616" data-name="Path 2616" d="M13.2,4.533,12.014,3.317C9.237.463,4.147,1.448,2.309,5.036c-.863,1.687-1.057,4.124.518,7.233C4.345,15.263,7.5,18.849,13.2,22.755c5.694-3.906,8.85-7.492,10.369-10.486,1.575-3.111,1.382-5.546.518-7.233-1.838-3.588-6.928-4.574-9.7-1.72Zm0,20.21C-12.1,8.03,5.409-5.015,12.906,1.885c.1.091.2.185.29.282q.14-.146.29-.28C20.982-5.018,38.488,8.028,13.2,24.743Z" transform="translate(0 0)" fill="#fff"/>
  </g>
</svg>
