<svg xmlns="http://www.w3.org/2000/svg" width="32.472" height="28.916" viewBox="34 461 32.472 28.916"><path d="M50.109 467.406c1.607 0 1.283-1.914 3.95-3.533.678-.41 1.693-.866 2.708-.907.628-.026.798-.108 1.68.034 2.005.323 3.317 1.234 4.517 2.713.286.352.482.718.696 1.143 1.254 2.492 1.17 5.376-.138 8.001-.114.228-.234.412-.345.607l-.701 1.074c-.124.177-.252.327-.39.5-.731.915-2.299 2.696-3.098 3.306-.184.14-.29.256-.46.428l-2.413 2.153c-.118.1-.131.089-.25.194l-5.63 4.835c-.128-.086-.123-.103-.24-.204-.114-.1-.135-.1-.248-.195l-3.4-2.943c-.117-.1-.13-.088-.249-.194-.097-.087-.128-.133-.23-.215l-2.455-2.11c-.196-.15-.281-.283-.461-.427l-1.432-1.295c-.367-.284-.618-.577-.94-.9-.31-.308-.586-.571-.89-.886-.174-.181-.222-.292-.41-.477-.198-.195-.262-.316-.444-.507l-.787-.989c-.678-.923-.865-1.324-1.365-2.313-1.344-2.658-.887-6.674 1.168-9.002l.476-.476c.379-.33.552-.543 1.019-.82 2.631-1.557 5.2-1.408 7.554.208l.94.834c.39.386.93 1.1 1.215 1.576.205.341.612.787 1.052.787Zm-16.11 2.79c0 2.491.296 3.875 1.504 6.045 1.176 2.114 2.813 3.68 4.474 5.356.223.224.394.33.604.538.377.373.727.675 1.138 1.019l.57.507c.108.09.156.155.256.252.141.137.176.138.315.256.11.091.153.157.258.25 1.042.926 2.534 2.097 3.52 3.013.137.128.18.135.315.254.407.363 2 1.781 2.393 1.983.638.329 1.082.32 1.744.028.293-.13.403-.267.625-.454.412-.347.755-.643 1.166-.99l4.697-4.055c.126-.113.157-.111.284-.223l1.428-1.3c.135-.119.18-.126.318-.253.11-.102.175-.18.283-.288l1.111-1.045c.588-.588 1.296-1.263 1.836-1.906 1.807-2.147 3.634-4.965 3.634-7.909 0-1.883-.083-2.917-.815-4.702-.678-1.654-1.985-3.318-3.518-4.22-.28-.165-.408-.267-.719-.422-1.476-.735-2.601-.93-4.334-.93-1.71 0-3.755.857-4.864 1.794-.26.219-.464.394-.7.632-.217.217-.478.445-.66.672-.161.2-.498.534-.561.77h-.127c-.122-.457-1.5-1.717-1.922-2.074-1.104-.933-3.149-1.794-4.864-1.794-1.687 0-2.857.192-4.292.909-.715.357-2.071 1.317-2.53 1.908-.784 1.008-1.165 1.325-1.731 2.71-.219.534-.415 1.03-.553 1.666-.127.585-.28 1.342-.28 2.003Z" fill="#243941" fill-rule="evenodd" data-name="Path 2879"/></svg>