<svg xmlns="http://www.w3.org/2000/svg" width="17.844" height="17.029" viewBox="-1.622 1.382 17.844 17.029"><path d="M15.74 9.105a1.195 1.195 0 0 0-.694-2.153l-4.845-.183a.124.124 0 0 1-.107-.08L8.419 2.166a1.195 1.195 0 0 0-2.244 0L4.506 6.705a.124.124 0 0 1-.108.08l-4.844.183a1.195 1.195 0 0 0-.695 2.154l3.8 2.987c.04.03.056.082.044.13l-1.308 4.634a1.195 1.195 0 0 0 1.819 1.32L7.23 15.5a.118.118 0 0 1 .134 0l4.016 2.691c.411.292.962.292 1.373 0 .407-.292.586-.81.447-1.292l-1.32-4.65a.118.118 0 0 1 .044-.13l3.817-3.015Z" fill="#fff" fill-rule="evenodd" data-name="Path 2832"/></svg>