<svg xmlns="http://www.w3.org/2000/svg" width="21.421" height="23.849" viewBox="0 0 21.421 23.849">
  <path id="Path_20" data-name="Path 20" d="M8,8.428h7.283m0,0a2.428,2.428,0,0,0,4.855,0m-4.855,0a2.428,2.428,0,0,1,4.855,0m0,0h7.283M8,16.924H22.566m0,0A2.428,2.428,0,1,0,24.993,14.5,2.428,2.428,0,0,0,22.566,16.924Zm-9.711,8.5H27.421m-14.566,0a2.428,2.428,0,1,0-2.428,2.428A2.428,2.428,0,0,0,12.855,25.421Z" transform="translate(-7 -5)" fill="none" stroke="#243941" stroke-linecap="round" stroke-width="2"/>
</svg>
