<svg xmlns="http://www.w3.org/2000/svg" width="27.32" height="27.301" viewBox="0 0 27.32 27.301">
  <g id="Layer_x0020_1" transform="translate(0 0.009)">
    <path id="Path_2791" data-name="Path 2791" d="M17.96,13.02a6.144,6.144,0,0,0,.883-.236l2.709-.766c.035.416,1.335,4.574,1.532,5.419-.293.024-1.429.392-1.8.5-.614.174-1.188.364-1.792.5l-1.157-4.026a8.392,8.392,0,0,1-.374-1.393Zm-1.119-.412a9.744,9.744,0,0,0,.4,1.544c.327,1.163,1.075,3.581,1.308,4.581-.389.032-1.907.589-2.179.589a8.9,8.9,0,0,1-.563-1.733c-.18-.631-.338-1.158-.517-1.78l-.64-2.246a3.439,3.439,0,0,1-.132-.458c-.025-.224.2-.372.381-.732a8,8,0,0,0,.682-1.615,6.631,6.631,0,0,0,.2-.973c.174-1.248-.356-.81,1.011-2.464a11.917,11.917,0,0,0,.988-1.368,3.832,3.832,0,0,1,.877.3L23.784,8.2c.164.1.126.157.192.4l1.969,6.866c.357,1.254.678.946-1.329,1.506a5.028,5.028,0,0,0-.589.177l-1.479-5.117c-.062-.214-.124-.5-.209-.733-.221-.594-.8-.315-1.264-.165l-3.666,1.045c-.2.056-.567.2-.567.434ZM9.656,6.071c-1.292,0-1.164-1.826-.177-1.826.557,0,1.06.192,1.06.883a.947.947,0,0,1-.883.942Zm6.125,1.06c-.162-.118-.125-.214-.189-.459-.206-.8-.385-.348.7-1.8,1.16-1.545.563-1.26,3.057-.374.354.126.64.236.981.374l4.054,1.541a5.652,5.652,0,0,0,1.053.36c-.133.277-.206.6-.354.883l-5.5-2.1c-2.455-.874-1.768-1.207-3.377.937a2.637,2.637,0,0,0-.429.631ZM7.712,5.011a1.893,1.893,0,0,0,3.77.353,1.837,1.837,0,0,0-.352-1.356A1.52,1.52,0,0,0,10.3,3.42l.471-.825a6.433,6.433,0,0,1,2.836,2.17,6.617,6.617,0,0,1-1.262,9.121,6.329,6.329,0,0,1-2.562,1.207c-2.531.6-1.374-.881-2.839,2.814l-1.51,4.145a14.029,14.029,0,0,1-1.081,2.689c-.181.121-.4.221-.6.341s-.381.217-.6.346A8.816,8.816,0,0,1,1.94,26.1a4.9,4.9,0,0,0-.219-.665L1,23.386a8.739,8.739,0,0,1,.329-.966c.251-.745,1.492-.489,1.41-1.255-.023-.214-.316-.661-.385-.959.24-.056.867-.3,1-.6s-.264-.8-.351-1.17a3.04,3.04,0,0,0,.574-.251C4,18,4,17.959,4,17.614A7.646,7.646,0,0,0,3.53,16.5a6.832,6.832,0,0,1,.375-1.156c.545-1.615.654-1.128-.479-2.273a5.9,5.9,0,0,1-.8-1.086A6.591,6.591,0,0,1,4.5,3.327a3.838,3.838,0,0,1,.466-.3,6.234,6.234,0,0,1,3.632-.9c.481,0,.768.118,1.178.118-.018.212-.084.24-.176.412-.638,1.189.02.293-.963.863A1.94,1.94,0,0,0,7.712,5.01Zm6.125-4.005a3.963,3.963,0,0,1,2.472.591,4,4,0,0,1,1.3,1.235,1.286,1.286,0,0,0-1.071.225,8.788,8.788,0,0,0-1.066,1.29c-.094.126-.157.207-.252.337-.2.27-.143.264-.32.328a5.451,5.451,0,0,0-.629-.961A6.839,6.839,0,0,0,12.61,2.469a4.329,4.329,0,0,0-1.07-.58,3.861,3.861,0,0,1,2.3-.883Zm-3.3.471a7.18,7.18,0,0,0-2.3-.353A7.512,7.512,0,0,0,1.787,4.858c-.122.2-.221.423-.319.623a7.519,7.519,0,0,0,.04,6.441,8.09,8.09,0,0,0,.953,1.52c.173.212.558.7.775.756a13.991,13.991,0,0,1-.553,1.626c-.415,1.188,0,.745.2,1.613-.307.163-.862.291-1,.6-.167.37.264.795.352,1.17-.309.163-.866.3-1,.6-.167.37.264.795.352,1.171-.754.4-.854.2-1.1.848-.731,1.965-.649,1.273.263,3.812a6.779,6.779,0,0,0,.637,1.544c.369.324.856-.1,1.466-.458.328-.193.6-.35.927-.545C5.906,24.9,5,25.816,6.222,22.721l1.57-4.32c.13-.386.271-.694.4-1.075L8.6,16.2c3.113,0,4.859-2.152,5.183-2.238.025.3.84,3.038.936,3.364l.719,2.52c.279.907.628.587,1.958.2.506-.147.995-.288,1.465-.42l7.277-2.087c1.555-.436,1.372-.2.64-2.735-.207-.715-.383-1.348-.589-2.062-.2-.7-.376-1.332-.575-2.016-.094-.324-.194-.674-.288-1.008l-.294-1.06c.754.4.829-.284,1.069-.875.5-1.225.751-1.5-.134-1.826L19.988,3.689c-1.228-.5-.912-.174-1.233-.828a5.205,5.205,0,0,0-6.8-2.387,4.072,4.072,0,0,0-1.413,1Z" transform="translate(0 0)" fill="#243941" fill-rule="evenodd"/>
  </g>
</svg>
