<svg xmlns="http://www.w3.org/2000/svg" width="47.082" height="47.082" viewBox="72.459 300.459 47.082 47.082"><g data-name="3d2ca86f299e21edb6d280de70b80e9b"><path d="M97.471 319.704a1.471 1.471 0 0 0-2.942 0 10.3 10.3 0 0 0-8.828 10.181 1.471 1.471 0 0 0 1.942 1.398 12.594 12.594 0 0 1 6.886-.25v4.738a1.471 1.471 0 0 1-2.943 0c0-.813-.659-1.472-1.471-1.472-2.81 0-1.472 5.885 2.942 5.885a4.414 4.414 0 0 0 4.414-4.413v-4.738a13.904 13.904 0 0 1 7.357.324c.812 0 1.471-.66 1.471-1.472a10.3 10.3 0 0 0-8.828-10.181ZM96 328.414a15.61 15.61 0 0 0-7.092-.412 7.357 7.357 0 0 1 14.184 0 15.625 15.625 0 0 0-7.092.412Z" fill="#fbac1a" fill-rule="evenodd" data-name="Path 6267"/><path d="M118.07 344.598h-4.414v-17.655a1.471 1.471 0 0 0-2.943 0v17.655H81.287v-24.1L96 311.038l17.538 11.27a2.943 2.943 0 0 0 4.532-2.472v-3.855a2.943 2.943 0 0 0-1.354-2.486l-19.921-12.8a1.471 1.471 0 0 0-1.59 0l-8.033 5.164v-2.457a2.943 2.943 0 0 0-2.943-2.943h-2.942a2.943 2.943 0 0 0-2.943 2.943v8.136l-3.06 1.957a2.943 2.943 0 0 0-1.354 2.486v3.855a2.943 2.943 0 0 0 4.414 2.53v22.232H73.93a1.471 1.471 0 0 0 0 2.943h44.14a1.471 1.471 0 0 0 0-2.943Zm-36.783-41.196h2.942v4.414l-2.942 1.824v-6.238Zm-4.414 12.58L96 303.681l19.127 12.3v3.854l-18.332-11.77a1.471 1.471 0 0 0-1.59 0l-18.332 11.77v-3.855Z" fill="#fbac1a" fill-rule="evenodd" data-name="Path 6268"/></g></svg>