<svg xmlns="http://www.w3.org/2000/svg" width="25.178" height="24.759" viewBox="0 0 25.178 24.759">
  <g id="Group_5393" data-name="Group 5393" transform="translate(0 0)">
    <g id="home_outline" transform="translate(0 0)">
      <path id="Path_6177" data-name="Path 6177" d="M16.973,25.471a6.3,6.3,0,0,0,1.491.086,12.619,12.619,0,0,0,2.982-.172,5.036,5.036,0,0,0,3.561-3.561,12.619,12.619,0,0,0,.172-2.982V13.634c0-2.785,0-4.178-.654-5.332S22.676,6.432,20.288,5L15.18,1.933A5.54,5.54,0,0,0,12.589.8,5.54,5.54,0,0,0,10,1.933L4.89,5C2.5,6.432,1.307,7.148.654,8.3S0,10.849,0,13.634v5.208a12.619,12.619,0,0,0,.172,2.982,5.036,5.036,0,0,0,3.561,3.561,12.619,12.619,0,0,0,2.982.172A6.3,6.3,0,0,0,8.2,25.471a2.518,2.518,0,0,0,1.78-1.78,6.309,6.309,0,0,0,.086-1.491V20.521c0-1.187,0-1.78.369-2.149S11.4,18,12.589,18s1.78,0,2.149.369.369.962.369,2.149V22.2a6.313,6.313,0,0,0,.086,1.491A2.518,2.518,0,0,0,16.973,25.471ZM12.589,2.686h0l-.03.007a1.556,1.556,0,0,0-.247.1c-.3.139-.675.364-1.339.762L5.861,6.618c-1.225.735-2.028,1.219-2.616,1.655a3.143,3.143,0,0,0-.948.96,3.143,3.143,0,0,0-.336,1.307c-.071.728-.073,1.666-.073,3.095v5.208A11.743,11.743,0,0,0,2,21.336a3.147,3.147,0,0,0,2.225,2.225,11.745,11.745,0,0,0,2.493.107c.407,0,.65,0,.832-.009a1.634,1.634,0,0,0,.176-.014.629.629,0,0,0,.437-.437,1.652,1.652,0,0,0,.014-.176c.008-.182.009-.425.009-.832V20.521c0-.029,0-.058,0-.087a12.22,12.22,0,0,1,.063-1.546,2.967,2.967,0,0,1,2.71-2.71,12.2,12.2,0,0,1,1.546-.063h.173a12.2,12.2,0,0,1,1.546.063,2.967,2.967,0,0,1,2.71,2.71,12.2,12.2,0,0,1,.063,1.546V22.2c0,.407,0,.65.009.832a1.638,1.638,0,0,0,.014.176.629.629,0,0,0,.437.437,1.637,1.637,0,0,0,.176.014c.182.008.425.009.832.009a11.743,11.743,0,0,0,2.493-.107,3.147,3.147,0,0,0,2.225-2.225,11.743,11.743,0,0,0,.107-2.493V13.634c0-1.429,0-2.367-.073-3.095a3.145,3.145,0,0,0-.336-1.307,3.142,3.142,0,0,0-.948-.96c-.588-.435-1.391-.92-2.616-1.655L14.208,3.553c-.664-.4-1.043-.623-1.339-.762a1.559,1.559,0,0,0-.246-.1l-.03-.007Z" transform="translate(0 -0.797)" fill="#fbac1a" fill-rule="evenodd"/>
    </g>
  </g>
</svg>
