<svg xmlns="http://www.w3.org/2000/svg" width="46.144" height="46.144" viewBox="72.878 300.842 46.144 46.144"><g data-name="__TEMP__SVG__"><path d="M72.878 343.69h46.144v3.296H72.878v-3.296Z" fill="#fbac1a" fill-rule="evenodd" data-name="Path 6265"/><path d="M114.078 315.674c.91 0 1.648-.738 1.648-1.648v-4.944c0-.694-.435-1.313-1.087-1.55l-18.128-6.591a1.648 1.648 0 0 0-1.121 0l-18.128 6.592a1.648 1.648 0 0 0-1.088 1.549v4.944c0 .91.738 1.648 1.648 1.648h1.648v21.424h-3.296v3.296h39.552v-3.296h-3.296v-21.424h1.648Zm-34.608-5.439 16.48-5.998 16.48 5.998v2.143H79.47v-2.143Zm19.776 26.863h-6.592v-21.424h6.592v21.424Zm-16.48-21.424h6.592v21.424h-6.592v-21.424Zm26.368 21.424h-6.592v-21.424h6.592v21.424Z" fill="#fbac1a" fill-rule="evenodd" data-name="Path 6266"/></g></svg>