<svg xmlns="http://www.w3.org/2000/svg" width="22.744" height="22.744" viewBox="18.628 192.628 22.744 22.744"><g data-name="__TEMP__SVG__"><path d="M36.07 204a13.774 13.774 0 0 0-.306-2.843h2.559c-.132-.39-.291-.77-.476-1.137h-2.381a14.016 14.016 0 0 0-2.054-4.172 8.742 8.742 0 0 0-1.813-.54 12.673 12.673 0 0 1 2.765 4.683h-3.83v-4.804h-1.067v4.811h-3.831a12.673 12.673 0 0 1 2.772-4.69c-.62.112-1.225.29-1.805.533a14.016 14.016 0 0 0-2.069 4.157H22.14c-.189.375-.35.762-.483 1.159h2.58c-.2.934-.303 1.887-.306 2.843a13.98 13.98 0 0 0 .356 3.106h-2.517c.148.398.323.786.526 1.159h2.296a13.732 13.732 0 0 0 1.912 3.81 8.728 8.728 0 0 0 1.855.56 12.73 12.73 0 0 1-2.623-4.37h3.739v4.506h1.066v-4.506h3.725a12.722 12.722 0 0 1-2.63 4.37 8.728 8.728 0 0 0 1.862-.575 13.732 13.732 0 0 0 1.912-3.795h2.274a8.77 8.77 0 0 0 .526-1.138h-2.523A13.98 13.98 0 0 0 36.07 204Zm-6.603 3.106h-4.08a12.573 12.573 0 0 1-.064-5.97h4.144v5.97Zm5.146 0h-4.08v-5.949h4.144c.204.934.304 1.887.298 2.843a12.879 12.879 0 0 1-.362 3.106Z" fill="#243840" fill-rule="evenodd" data-name="Path 6208"/><path d="M30 192.628c-6.28 0-11.372 5.091-11.372 11.372 0 6.28 5.091 11.372 11.372 11.372 6.28 0 11.372-5.091 11.372-11.372 0-6.28-5.091-11.372-11.372-11.372Zm0 21.323c-5.496 0-9.95-4.455-9.95-9.951s4.454-9.95 9.95-9.95c5.496 0 9.95 4.454 9.95 9.95 0 5.496-4.454 9.95-9.95 9.95Z" fill="#243840" fill-rule="evenodd" data-name="Path 6209"/></g></svg>