<svg xmlns="http://www.w3.org/2000/svg" width="22.493" height="22.493"><g data-name="Group 5441"><path d="M11.247 4.124a7.13 7.13 0 0 0-7.123 7.123 7.13 7.13 0 0 0 7.123 7.122 7.13 7.13 0 0 0 7.122-7.122 7.13 7.13 0 0 0-7.122-7.123Zm0 12.746a5.623 5.623 0 1 1 5.623-5.623 5.63 5.63 0 0 1-5.623 5.623Z" fill="#243840" fill-rule="evenodd" data-name="Path 6226"/><path d="M10.497 0h1.5v2.25h-1.5V0Z" fill="#243840" fill-rule="evenodd" data-name="Path 6227"/><path d="M10.497 20.244h1.5v2.25h-1.5v-2.25Z" fill="#243840" fill-rule="evenodd" data-name="Path 6228"/><path d="M20.244 10.497h2.25v1.5h-2.25v-1.5Z" fill="#243840" fill-rule="evenodd" data-name="Path 6229"/><path d="M0 10.497h2.25v1.5H0v-1.5Z" fill="#243840" fill-rule="evenodd" data-name="Path 6230"/><path d="m17.464 18.525 1.06-1.06 1.5 1.499-1.06 1.06-1.5-1.5Z" fill="#243840" fill-rule="evenodd" data-name="Path 6231"/><path d="m2.469 3.53 1.06-1.061 1.5 1.5-1.06 1.06-1.5-1.5Z" fill="#243840" fill-rule="evenodd" data-name="Path 6232"/><path d="m2.469 18.964 1.5-1.5 1.06 1.06-1.5 1.5-1.06-1.06Z" fill="#243840" fill-rule="evenodd" data-name="Path 6233"/><path d="m17.464 3.968 1.5-1.5 1.06 1.061-1.5 1.5-1.06-1.06Z" fill="#243840" fill-rule="evenodd" data-name="Path 6234"/></g></svg>