<svg xmlns="http://www.w3.org/2000/svg" width="33.764" height="33.765" viewBox="0 0 33.764 33.765">
  <path id="Path_2793" data-name="Path 2793" d="M1012.69,30.783v-18.2a5.341,5.341,0,0,1,5.671-5.671h18.2a5.341,5.341,0,0,1,5.672,5.671v18.2a5.341,5.341,0,0,1-5.672,5.671h-18.2A5.341,5.341,0,0,1,1012.69,30.783Zm5.276-2.9v2.374a1.085,1.085,0,0,0,.923.923h2.374a1.085,1.085,0,0,0,.923-.923V27.881a1.085,1.085,0,0,0-.923-.923h-2.374A1.085,1.085,0,0,0,1017.966,27.881Zm0-7.386v2.374a1.085,1.085,0,0,0,.923.923h2.374a1.085,1.085,0,0,0,.923-.923V20.5a1.085,1.085,0,0,0-.923-.923h-2.374A1.085,1.085,0,0,0,1017.966,20.5Zm0-7.386v2.374a1.085,1.085,0,0,0,.923.923h2.374a1.085,1.085,0,0,0,.923-.923V13.109a1.085,1.085,0,0,0-.923-.923h-2.374A1.085,1.085,0,0,0,1017.966,13.109Zm6.331,9.628h12.662v-2.11H1024.3Zm0-7.386h12.662v-2.11H1024.3Zm0,14.772h12.662v-2.11H1024.3ZM1010.58,11.791V31.575a7.351,7.351,0,0,0,3.08,5.625l1.119.662a7.418,7.418,0,0,0,2.792.7h19.784a7.378,7.378,0,0,0,6.99-6.99V11.791a7.45,7.45,0,0,0-1-3.351,7.555,7.555,0,0,0-2.078-2.275,7.366,7.366,0,0,0-3.911-1.365H1017.57a7.367,7.367,0,0,0-6.99,6.99Z" transform="translate(-1010.58 -4.8)" fill="#fff" fill-rule="evenodd"/>
</svg>
