<svg id="logout" xmlns="http://www.w3.org/2000/svg" width="17.55" height="20.475" viewBox="0 0 17.55 20.475">
  <path id="Path_6201" data-name="Path 6201" d="M16.238,23.475H7.463A1.464,1.464,0,0,1,6,22.013V19.819H7.463v2.194h8.775V4.463H7.463V6.656H6V4.463A1.464,1.464,0,0,1,7.463,3h8.775A1.464,1.464,0,0,1,17.7,4.463v17.55A1.464,1.464,0,0,1,16.238,23.475Z" transform="translate(-0.15 -3)"/>
  <path id="Path_6202" data-name="Path 6202" d="M20.422,22.741,17.8,20.119H28.163V18.656H17.8l2.622-2.622L19.388,15,15,19.388l4.388,4.388Z" transform="translate(-15 -9.15)"/>
</svg>
