<svg xmlns="http://www.w3.org/2000/svg" width="32.47" height="32.469" viewBox="0 0.001 32.47 32.469"><g data-name="Group 4318"><path d="M32.1.23c.234.192.37.48.37.785v28.412c0 .483-.341.9-.815.994l-10.147 2.03a1.019 1.019 0 0 1-.398 0l-9.948-1.99-9.948 1.99A1.015 1.015 0 0 1 0 31.455V3.044c0-.483.342-.9.816-.994L10.963.02c.131-.026.266-.026.398 0l9.948 1.99L31.257.02c.298-.06.607.017.842.21ZM20.293 3.875l-8.118-1.623v26.341l8.118 1.624V3.876Zm2.03 26.342 8.117-1.624V2.253l-8.118 1.623v26.342Zm-12.177-1.624V2.253L2.029 3.876v26.342l8.118-1.624Z" fill="#fff" fill-rule="evenodd" data-name="Path 2606"/></g></svg>