<svg xmlns="http://www.w3.org/2000/svg" width="25.512" height="25.512" viewBox="0 0 25.512 25.512">
  <g id="Categories" opacity="0.5">
    <path id="Path_3551" data-name="Path 3551" d="M7.441,0H4.252A4.252,4.252,0,0,0,0,4.252V7.441a4.252,4.252,0,0,0,4.252,4.252H7.441a4.252,4.252,0,0,0,4.252-4.252V4.252A4.252,4.252,0,0,0,7.441,0Z" fill="#243941"/>
    <path id="Path_3552" data-name="Path 3552" d="M20.441,0H17.252A4.252,4.252,0,0,0,13,4.252V7.441a4.252,4.252,0,0,0,4.252,4.252h3.189a4.252,4.252,0,0,0,4.252-4.252V4.252A4.252,4.252,0,0,0,20.441,0Z" transform="translate(0.819)" fill="#243941"/>
    <path id="Path_3553" data-name="Path 3553" d="M7.441,13H4.252A4.252,4.252,0,0,0,0,17.252v3.189a4.252,4.252,0,0,0,4.252,4.252H7.441a4.252,4.252,0,0,0,4.252-4.252V17.252A4.252,4.252,0,0,0,7.441,13Z" transform="translate(0 0.819)" fill="#243941"/>
    <path id="Path_3554" data-name="Path 3554" d="M20.441,13H17.252A4.252,4.252,0,0,0,13,17.252v3.189a4.252,4.252,0,0,0,4.252,4.252h3.189a4.252,4.252,0,0,0,4.252-4.252V17.252A4.252,4.252,0,0,0,20.441,13Z" transform="translate(0.819 0.819)" fill="#243941"/>
  </g>
</svg>
