<svg xmlns="http://www.w3.org/2000/svg" width="35.243" height="32.889" viewBox="0 3 35.243 32.889"><g data-name="Group 5127"><path d="M5.899 26.996c.463.465.694 1.111.632 1.764a24.163 24.163 0 0 1-.877 4.406c3.073-.712 4.95-1.536 5.802-1.967a2.203 2.203 0 0 1 1.564-.163c1.501.4 3.048.601 4.601.599 8.802 0 15.42-6.183 15.42-13.216 0-7.031-6.618-13.216-15.42-13.216-8.801 0-15.418 6.185-15.418 13.216 0 3.233 1.359 6.233 3.696 8.577Zm-1.086 8.601c-.522.104-1.046.199-1.57.285-.441.07-.776-.388-.602-.798.196-.461.375-.929.537-1.403l.007-.022c.546-1.586.991-3.41 1.154-5.108C1.637 25.841 0 22.295 0 18.42 0 9.903 7.89 3 17.621 3c9.732 0 17.622 6.903 17.622 15.419 0 8.515-7.89 15.419-17.622 15.419a19.956 19.956 0 0 1-5.17-.674c-1.145.579-3.61 1.634-7.638 2.433Z" fill="#fff" fill-rule="evenodd" data-name="Path 2817"/></g></svg>