<svg xmlns="http://www.w3.org/2000/svg" width="48.66" height="56.77"><path d="M38.047 24.837c.993.296 1.938.697 2.836 1.204.897.507 1.837 1.278 2.82 2.312.981 1.035 1.82 2.255 2.518 3.66.697 1.404 1.278 3.22 1.742 5.448.465 2.229.697 4.726.697 7.493 0 3.252-1.056 6.035-3.168 8.347-2.112 2.313-4.657 3.47-7.635 3.47H10.803c-2.978 0-5.523-1.157-7.635-3.47C1.056 50.99 0 48.206 0 44.954c0-2.767.232-5.264.697-7.493.465-2.228 1.045-4.044 1.742-5.449.697-1.404 1.537-2.624 2.519-3.659.982-1.034 1.922-1.805 2.82-2.312a13.703 13.703 0 0 1 2.835-1.204c-1.669-2.64-2.503-5.512-2.503-8.617a15.8 15.8 0 0 1 1.283-6.288c.855-1.996 2.012-3.723 3.469-5.18 1.457-1.457 3.184-2.614 5.18-3.469A15.8 15.8 0 0 1 24.33 0a15.8 15.8 0 0 1 6.289 1.283c1.995.855 3.722 2.012 5.18 3.469 1.456 1.457 2.613 3.184 3.468 5.18a15.8 15.8 0 0 1 1.283 6.288c0 3.105-.834 5.977-2.503 8.617ZM24.33 4.055c-3.358 0-6.225 1.188-8.601 3.564-2.376 2.376-3.564 5.243-3.564 8.601 0 3.358 1.188 6.225 3.564 8.601 2.376 2.376 5.243 3.564 8.601 3.564 3.358 0 6.225-1.188 8.601-3.564 2.376-2.376 3.564-5.243 3.564-8.6 0-3.359-1.188-6.226-3.564-8.602-2.376-2.376-5.243-3.564-8.6-3.564Zm13.527 48.66c1.859 0 3.448-.755 4.768-2.265 1.32-1.51 1.98-3.342 1.98-5.496 0-5.048-.829-9.03-2.487-11.944-1.658-2.914-4.039-4.445-7.143-4.593-3.063 2.682-6.611 4.023-10.645 4.023s-7.582-1.341-10.644-4.023c-3.105.148-5.486 1.679-7.144 4.593-1.658 2.915-2.487 6.896-2.487 11.944 0 2.154.66 3.986 1.98 5.496 1.32 1.51 2.91 2.265 4.768 2.265h27.054Z" fill="#fbac1a" fill-rule="evenodd" data-name="Path 2875"/></svg>