<svg xmlns="http://www.w3.org/2000/svg" width="31.707" height="24.912" viewBox="35 513.044 31.707 24.912"><g data-name="notebook"><path d="M54.25 518.706h7.927v2.265H54.25v-2.265Z" fill="#243941" fill-rule="evenodd" data-name="Path 6242"/><path d="M54.25 524.368h7.927v2.264H54.25v-2.264Z" fill="#243941" fill-rule="evenodd" data-name="Path 6243"/><path d="M54.25 530.03h7.927v2.264H54.25v-2.264Z" fill="#243941" fill-rule="evenodd" data-name="Path 6244"/><path d="M64.442 513.044H37.265A2.267 2.267 0 0 0 35 515.309v20.382a2.267 2.267 0 0 0 2.265 2.265h27.177a2.268 2.268 0 0 0 2.265-2.265V515.31a2.267 2.267 0 0 0-2.265-2.265Zm-27.177 2.265H49.72v20.382H37.265V515.31Zm14.72 20.382V515.31h12.457l.002 20.382H51.986Z" fill="#243941" fill-rule="evenodd" data-name="Path 6245"/></g></svg>