<svg xmlns="http://www.w3.org/2000/svg" width="27.979" height="29.195" viewBox="45.593 717.081 27.979 29.195"><g data-name="notification-outline-badged"><path d="M58.685 746.275a2.338 2.338 0 0 0 2.26-1.996h-4.607a2.338 2.338 0 0 0 2.347 1.996Z" fill="#243941" fill-rule="evenodd" data-name="Path 6262"/><path d="M71.392 740.627a12.61 12.61 0 0 1-2.198-2.566 11.06 11.06 0 0 1-1.182-4.212v-4.327a9.563 9.563 0 0 0-.14-1.567 6.515 6.515 0 0 1-1.962-.736c.233.749.35 1.528.35 2.312v4.326c.108 1.792.6 3.54 1.445 5.123a14.16 14.16 0 0 0 2.137 2.628H47.415a14.16 14.16 0 0 0 2.136-2.628 12.47 12.47 0 0 0 1.445-5.123v-4.335a7.706 7.706 0 0 1 7.69-7.741 7.54 7.54 0 0 1 4.168 1.261 6.56 6.56 0 0 1-.228-1.533v-.551a9.265 9.265 0 0 0-2.907-.876v-1.103a1.17 1.17 0 1 0-2.338 0v1.147a9.467 9.467 0 0 0-8.145 9.396v4.327a11.06 11.06 0 0 1-1.182 4.212 12.61 12.61 0 0 1-2.163 2.566.876.876 0 0 0-.298.657v1.19c0 .484.392.876.876.876h24.345a.876.876 0 0 0 .876-.875v-1.191a.876.876 0 0 0-.298-.657Z" fill="#243941" fill-rule="evenodd" data-name="Path 6263"/><path d="M64.816 721.41a4.379 4.379 0 1 1 0 .1z" fill="#243941" fill-rule="evenodd" data-name="Ellipse 95"/></g></svg>