<svg xmlns="http://www.w3.org/2000/svg" width="24.855" height="24.846" viewBox="67 1996 24.855 24.846"><g data-name="phone"><g data-name="Path 2635"><path d="M88.988 2020.846h-.162c-18.778-1.08-21.444-16.924-21.817-21.76a2.867 2.867 0 0 1 2.638-3.086h5.265c.783 0 1.488.476 1.778 1.204l1.452 3.574c.286.71.12 1.523-.42 2.064l-2.036 2.055a8.954 8.954 0 0 0 7.244 7.263l2.074-2.055a1.911 1.911 0 0 1 2.073-.392l3.603 1.443a1.911 1.911 0 0 1 1.175 1.778v5.045a2.867 2.867 0 0 1-2.867 2.867Z" fill="#243941" fill-rule="evenodd"/><path d="M88.988 2020.846h-.162c-18.778-1.08-21.444-16.924-21.817-21.76a2.867 2.867 0 0 1 2.638-3.086h5.265c.783 0 1.488.476 1.778 1.204l1.452 3.574c.286.71.12 1.523-.42 2.064l-2.036 2.055a8.954 8.954 0 0 0 7.244 7.263l2.074-2.055a1.911 1.911 0 0 1 2.073-.392l3.603 1.443a1.911 1.911 0 0 1 1.175 1.778v5.045a2.867 2.867 0 0 1-2.867 2.867Z" stroke-linejoin="round" stroke-linecap="round" stroke-width="1.5" stroke="#fff" fill="transparent"/></g></g></svg>