<svg xmlns="http://www.w3.org/2000/svg" width="26.856" height="26.654" viewBox="0 0 26.856 26.654">
  <g id="Layer_x0020_1" transform="translate(0 0.006)">
    <g id="_2552746121552" transform="translate(0 -0.006)">
      <path id="Path_2779" data-name="Path 2779" d="M5.612,20.458a.564.564,0,0,1,.629-.524H9.389a.608.608,0,0,1,.682.682v4.878H5.612V20.458ZM25.23,25.494H15.684V11.122c1.394.325,3.723.729,5.171,1.018l3.85.765c.412.068,1,.112,1,.576V25.022a.474.474,0,0,1-.472.472ZM4.459,20.458v5.036H1.626a.474.474,0,0,1-.472-.472V1.628c0-.807,1.386-.362,2.148-.259,3.238.437,6.657,1.032,9.932,1.5.5.072,1.3.065,1.3.645V25.494h-3.3V20.721A1.772,1.772,0,0,0,9.284,18.78H6.294a1.738,1.738,0,0,0-1.836,1.679ZM0,1.575v23.5a1.657,1.657,0,0,0,1.574,1.574H25.282a1.657,1.657,0,0,0,1.574-1.574v-11.7a1.584,1.584,0,0,0-.636-1.148,2.777,2.777,0,0,0-1.379-.456L15.684,9.968V3.516a1.726,1.726,0,0,0-.764-1.387A4.7,4.7,0,0,0,13.151,1.7L2.72.114c-.9-.152-1.582-.278-2.263.4A1.479,1.479,0,0,0,0,1.575Z" transform="translate(0 0.006)" fill="#243941" fill-rule="evenodd"/>
      <path id="Path_2780" data-name="Path 2780" d="M204.953,277.164h2.361c.608,0,.885-1.154-.262-1.154h-1.888C204.2,276.01,204.309,277.164,204.953,277.164Z" transform="translate(-195.512 -263.938)" fill="#243941" fill-rule="evenodd"/>
      <path id="Path_2781" data-name="Path 2781" d="M435.2,353.924h2.361c.608,0,.885-1.154-.262-1.154h-1.889C434.45,352.77,434.56,353.924,435.2,353.924Z" transform="translate(-415.692 -337.34)" fill="#243941" fill-rule="evenodd"/>
      <path id="Path_2782" data-name="Path 2782" d="M204.953,353.924h2.361c.608,0,.885-1.154-.262-1.154h-1.888C204.2,352.77,204.309,353.924,204.953,353.924Z" transform="translate(-195.512 -337.34)" fill="#243941" fill-rule="evenodd"/>
      <path id="Path_2783" data-name="Path 2783" d="M435.2,430.674h2.361c.608,0,.885-1.154-.262-1.154h-1.889C434.45,429.52,434.56,430.674,435.2,430.674Z" transform="translate(-415.692 -410.733)" fill="#243941" fill-rule="evenodd"/>
      <path id="Path_2784" data-name="Path 2784" d="M435.2,507.424h2.361c.608,0,.885-1.154-.262-1.154h-1.889C434.45,506.27,434.56,507.424,435.2,507.424Z" transform="translate(-415.692 -484.126)" fill="#243941" fill-rule="evenodd"/>
      <path id="Path_2785" data-name="Path 2785" d="M204.953,123.664h2.361c.608,0,.885-1.154-.262-1.154h-1.888C204.2,122.51,204.309,123.664,204.953,123.664Z" transform="translate(-195.512 -117.151)" fill="#243941" fill-rule="evenodd"/>
      <path id="Path_2786" data-name="Path 2786" d="M204.953,200.414h2.361c.608,0,.885-1.154-.262-1.154h-1.888C204.2,199.26,204.309,200.414,204.953,200.414Z" transform="translate(-195.512 -190.544)" fill="#243941" fill-rule="evenodd"/>
      <path id="Path_2787" data-name="Path 2787" d="M76.75,199.784c0,.354.151.629.525.629h2.308a.583.583,0,1,0-.157-1.154H77.432c-.345,0-.682.184-.682.524Z" transform="translate(-73.393 -190.544)" fill="#243941" fill-rule="evenodd"/>
      <path id="Path_2788" data-name="Path 2788" d="M76.75,276.534c0,.354.151.629.525.629h2.308a.583.583,0,1,0-.157-1.154H77.432c-.345,0-.682.184-.682.524Z" transform="translate(-73.393 -263.938)" fill="#243941" fill-rule="evenodd"/>
      <path id="Path_2789" data-name="Path 2789" d="M76.75,123.034c0,.354.151.629.525.629h2.308a.583.583,0,1,0-.157-1.154H77.432c-.345,0-.682.184-.682.524Z" transform="translate(-73.393 -117.151)" fill="#243941" fill-rule="evenodd"/>
      <path id="Path_2790" data-name="Path 2790" d="M76.75,353.284c0,.354.151.629.525.629h2.308a.583.583,0,1,0-.157-1.154H77.432c-.345,0-.682.184-.682.524Z" transform="translate(-73.393 -337.331)" fill="#243941" fill-rule="evenodd"/>
    </g>
  </g>
</svg>
