<svg id="document" xmlns="http://www.w3.org/2000/svg" width="18.119" height="25.366" viewBox="0 0 18.119 25.366">
  <path id="Path_3979" data-name="Path 3979" d="M26.847,9.613,20.505,3.272A.822.822,0,0,0,19.871,3H10.812A1.817,1.817,0,0,0,9,4.812V26.554a1.817,1.817,0,0,0,1.812,1.812H25.307a1.817,1.817,0,0,0,1.812-1.812V10.247A.822.822,0,0,0,26.847,9.613ZM19.871,5.174l5.073,5.073H19.871Zm5.436,21.38H10.812V4.812h7.247v5.436a1.817,1.817,0,0,0,1.812,1.812h5.436Z" transform="translate(-9 -3)" fill="#fbac1a"/>
  <path id="Path_3980" data-name="Path 3980" d="M15,33H25.871v1.812H15Z" transform="translate(-11.376 -14.881)" fill="#fbac1a"/>
  <path id="Path_3981" data-name="Path 3981" d="M15,24H25.871v1.812H15Z" transform="translate(-11.376 -11.317)" fill="#fbac1a"/>
</svg>
