<svg xmlns="http://www.w3.org/2000/svg" width="33.211" height="33.211" viewBox="34 407.705 33.211 33.211"><path d="M34 437.69c0 .432.151.89.39 1.32.272.485.654.922 1.064 1.235.135.103.255.162.405.236l.12.06c.166.082.373.177.604.254.212.07.435.12.64.12v-.001h5.862v.002c.372 0 .634-.236.753-.534a1.06 1.06 0 0 0 .075-.392.932.932 0 0 0-.075-.375c-.124-.283-.427-.501-.949-.497l-.26.003c-1.21.01-4.774.043-5.244-.03-.528-.083-.926-.299-1.198-.652-.264-.34-.394-.79-.394-1.35V411.53c0-.604.17-1.11.501-1.471.33-.36.8-.561 1.4-.561h12.512c.86 0 1.177.337 1.563.745.039.042.079.084.16.164l1.13 1.132c.29.289.478.47.635.62 1.066 1.025 1.073 1.032 1.073 2.633l.005 6.681a.737.737 0 0 0 .195.38.997.997 0 0 0 .842.292.858.858 0 0 0 .476-.228c.064-.06.15-.168.214-.29a.453.453 0 0 0 .062-.179v-7.72c0-1.414-1.075-2.443-1.948-3.278-.16-.153-.314-.302-.405-.392-.09-.09-.238-.245-.39-.404-.837-.873-1.866-1.949-3.276-1.95v.003H37.225v-.002c-.308 0-.64.085-.962.22-.371.157-.722.38-1 .62a4.226 4.226 0 0 0-.512.511c-.139.17-.264.364-.395.616a3.936 3.936 0 0 0-.255.689c-.058.21-.1.42-.1.568h.001v26.762H34Zm5.326-8.522c0 .353.08.654.24.849.128.154.323.247.59.247h4.925a.844.844 0 0 0 .553-.229c.17-.153.276-.336.276-.468v-.4c0-.123-.107-.292-.255-.44-.148-.149-.317-.256-.44-.256h-5.193c-.123 0-.293.107-.44.255-.148.149-.256.318-.256.442Zm0-5.325c0 .354.08.654.24.849.128.154.323.247.59.247h10.25a.841.841 0 0 0 .553-.229c.17-.152.276-.336.276-.467v-.4c0-.123-.107-.293-.255-.44-.148-.149-.318-.256-.441-.256H40.022c-.123 0-.293.107-.44.256-.148.148-.256.317-.256.44Zm0-5.324c0 .353.08.653.24.848.128.155.323.248.59.248h10.383c.124 0 .293-.108.441-.256.148-.148.255-.317.255-.44v-.4c0-.124-.107-.293-.255-.441-.148-.148-.318-.255-.441-.255H40.022c-.123 0-.293.107-.44.255-.148.148-.256.317-.256.441Zm9.895 19.904 1.867-3.64c.438-.7 4.825-5.025 7.11-7.278.461-.455.824-.813 1.169-1.157l1.83-1.83a9.45 9.45 0 0 0 .26-.273c.544-.586 1.333-1.435 2.194-1.435.497 0 .922.2 1.228.509a1.785 1.785 0 0 1 .519 1.25c0 .43-.16.871-.524 1.231a906.116 906.116 0 0 0-4.619 4.632c-2.136 2.152-4.274 4.305-6.398 6.386-.227.223-.376.293-.597.396a6.505 6.505 0 0 0-.125.06l-3.327 1.732-.586-.583Zm17.99-14.041h-.002v-.008h.002c0-.859-.404-1.696-1.02-2.323-.614-.625-1.436-1.033-2.274-1.033-.44 0-.762.006-1.051.06-.284.053-.566.157-.946.355-.579.301-1.886 1.647-2.713 2.499-.223.23-.42.432-.49.502l-8.587 8.586-.003.001a2.93 2.93 0 0 0-.42.51 7.146 7.146 0 0 0-.355.648c-.068.134-.13.242-.193.349a4.882 4.882 0 0 0-.184.335c-.1.201-.244.474-.409.786-.52.98-1.253 2.364-1.253 2.705 0 .406.001.728.07.998v.001c.068.26.208.515.493.831.208.231.429.402.659.52.232.12.48.188.735.21h.39c.226-.019.455-.07.683-.148.251-.086.5-.204.744-.35.38-.228.722-.395 1.084-.571l.348-.172v.001l2.056-1.097c.596-.354 3.049-2.86 4.287-4.124l.604-.616 6.457-6.457h.002c.443-.439.767-.845.976-1.308.208-.46.31-.994.31-1.69Z" fill="#243941" fill-rule="evenodd" data-name="Path 2878"/></svg>