<svg id="Group_5402" data-name="Group 5402" xmlns="http://www.w3.org/2000/svg" width="22.153" height="28.216" viewBox="0 0 22.153 28.216">
  <g id="Layer_x0020_1">
    <g id="_2239041801920">
      <path id="Path_6191" data-name="Path 6191" d="M19.463,26.838H2.71c-.572,0-1.323-.47-1.323-.992V6.338A1.471,1.471,0,0,1,2.71,5.07H5.355c0,.848-.22,2.315.606,2.315H16.156c.881,0,.661-1.379.661-2.315h2.645a1.509,1.509,0,0,1,1.323,1.213V25.736a1.273,1.273,0,0,1-1.323,1.1ZM10.739,0h.528a3.414,3.414,0,0,1,1.788.621,3.123,3.123,0,0,1,1.007,1.363c3.02,0,2.756-.167,2.756,1.708h2.7a2.847,2.847,0,0,1,2.645,2.59V25.846a2.7,2.7,0,0,1-2.645,2.369H2.655A2.71,2.71,0,0,1,.01,25.846V6.282A2.859,2.859,0,0,1,1.644,3.948c.84-.406,2.581-.256,3.712-.256,0-1.245-.207-1.716,1.046-1.71.552,0,1.1,0,1.655,0A3.187,3.187,0,0,1,9.063.622,2.9,2.9,0,0,1,10.74,0ZM6.733,3.361H8.551c.675,0,.638-.832.975-1.285a1.827,1.827,0,0,1,3.026-.016c.328.481.284,1.3.959,1.3H15.44V6.006H6.733Z" transform="translate(-0.01)" fill="#fbac1a" fill-rule="evenodd"/>
      <path id="Path_6192" data-name="Path 6192" d="M187.02,213.668h7.66c.845,0,.9-1.378.055-1.378H186.91A.691.691,0,1,0,187.02,213.668Z" transform="translate(-176.55 -201.213)" fill="#fbac1a" fill-rule="evenodd"/>
      <path id="Path_6193" data-name="Path 6193" d="M187.02,419.608h7.605a.692.692,0,0,0,.11-1.378H186.91A.691.691,0,1,0,187.02,419.608Z" transform="translate(-176.55 -396.407)" fill="#fbac1a" fill-rule="evenodd"/>
      <path id="Path_6194" data-name="Path 6194" d="M185.88,315.437a.712.712,0,0,0,.606.661h7.881a.664.664,0,0,0,.606-.5c0-.45-.035-.882-.882-.882h-7.274c-.537,0-.937.3-.937.716Z" transform="translate(-176.181 -298.298)" fill="#fbac1a" fill-rule="evenodd"/>
      <path id="Path_6195" data-name="Path 6195" d="M66.459,388.745l-.921-.953a.663.663,0,0,0-1.118.567c0,.435.953,1.161,1.364,1.612.621.681.849.556,1.6-.193l1.675-1.576c1.287-1.027.542-1.661-.063-1.661-.388,0-1.056.806-1.309,1.061l-1.226,1.143Z" transform="translate(-61.059 -366.371)" fill="#fbac1a" fill-rule="evenodd"/>
      <path id="Path_6196" data-name="Path 6196" d="M66.459,182.785l-.921-.953a.663.663,0,0,0-1.118.567c0,.407.954,1.191,1.364,1.611.252.257.513.72,1.172.209a4.368,4.368,0,0,0,.425-.4l.855-.8a8.332,8.332,0,0,1,.812-.786c1.3-.99.557-1.653-.055-1.653-.413,0-1.094.905-1.606,1.314a3.449,3.449,0,0,0-.309.3,4.322,4.322,0,0,1-.62.592Z" transform="translate(-61.059 -171.157)" fill="#fbac1a" fill-rule="evenodd"/>
      <path id="Path_6197" data-name="Path 6197" d="M66.312,285.688a4.755,4.755,0,0,1-.648-.62c-.224-.224-.355-.482-.785-.482a.676.676,0,0,0-.4,1.172c.324.327,1.285,1.515,1.708,1.6.406.082.587-.175.827-.417l1.369-1.276c.264-.2,1.236-1.1,1.236-1.409a.721.721,0,0,0-.84-.735c-.392.089-.584.468-.86.688-.442.353-1.193,1.2-1.606,1.48Z" transform="translate(-60.912 -268.714)" fill="#fbac1a" fill-rule="evenodd"/>
    </g>
  </g>
</svg>
