<svg xmlns="http://www.w3.org/2000/svg" width="56.95" height="56.951"><g data-name="_2239154239920"><g data-name="Path 6178"><path d="M41.712 55.171c-2.01 0-4.038-.567-5.483-1.19-2.253-.974-4.056-2.585-5.498-4.513-.536-.717-.802-1.286-1.219-2.119-2.233-4.46-1.397-10.62 1.884-14.284 1.124-1.255 1.13-1.286 2.544-2.35 4.34-3.264 11.112-3.245 15.464-.032 2.646 1.954 4.664 4.668 5.388 7.96.44 2.004.522 3.951.025 5.94-.653 2.611-1.666 4.66-3.567 6.556-1.044 1.042-2.604 2.23-3.991 2.793-.91.37-1.424.567-2.498.84-.826.209-2.085.4-3.049.4ZM26.277.001h.913a4.764 4.764 0 0 1 2.177.776c.567.377 1.13.792 1.682 1.21l16.874 12.268c1.16.85 2.255 1.606 3.418 2.478 1.61 1.205 2.161 2.207 2.161 4.29 0 1.607-1.287 3.303-2.558 3.894-3.109 1.444-5.242-.776-5.673-.89v2.78c.27.13.899.28 1.266.403 4.026 1.347 7.63 4.524 9.207 8.478 1.116 2.798 1.206 3.772 1.206 6.803 0 5.218-3.964 10.925-8.677 13.012-2.849 1.262-4.208 1.448-7.34 1.448-4.496 0-8.905-2.69-11.522-6.164-.248-.33-.843-1.162-.936-1.511H17.018c-2.85 0-4.91.056-6.757-1.808-1.983-2-2.03-3.257-2.03-6.423V24.026c-.312.084-3.706 3.116-6.925-.083C.18 22.823 0 21.944 0 20.356c0-1.68 1.057-2.794 2.225-3.671l18.62-13.526c.322-.221.53-.399.828-.618l2.53-1.809A4.581 4.581 0 0 1 26.276 0Zm1.197 47.384H22.47V30.144c0-.89.667-1.557 1.557-1.557h5.45c1.306 0 1.558 1.007 1.558 2.002 0 .238-.836 1.03-1.25 1.531-1.362 1.66-2.241 3.468-2.854 5.6-.629 2.188-.677 5.16-.124 7.442.196.808.495 1.474.669 2.223Zm5.34-18.13c-.41-.853-.444-1.226-1.222-1.783-.631-.453-1.248-.776-2.338-.776-1.418 0-5.473-.179-6.521.264-.247.104-.89.537-1.073.707a3.512 3.512 0 0 0-1.082 2.477v17.24h-6.006a4.438 4.438 0 0 1-4.243-3.097c-.471-1.529-.206-5.128-.206-7.136V22.47c.424-.114 3.765-2.627 4.179-2.94.714-.54 1.36-.973 2.067-1.492l2.118-1.553c.39-.265.638-.475 1.026-.754l3.1-2.239c.381-.287.638-.462 1.033-.746l3.161-2.29 8.21 6.029c.378.257.672.51 1.024.756l6.197 4.48c.348.26.724.636 1.143.748v4.004c-.711 0-1.008-.086-1.56-.115-1.09-.057-3.386.376-4.447.671-1.849.514-3.152 1.283-4.56 2.225ZM4.672 23.58c-2.4 0-4.325-3.216-1.4-5.404L19.975 6.071c.636-.457 5.009-3.755 5.57-3.996 2.038-.874 3.441.678 5.472 2.17.28.205.502.344.78.554l12.695 9.217c.262.184.49.372.762.572l4.78 3.453c.25.17.598.433.816.629 1.658 1.49.759 4.91-2.019 4.91-1.284 0-2.206-.977-3.025-1.534-2.987-2.034-6.466-4.826-9.411-6.83-2.534-1.723-5.541-4.139-8.12-5.895-1.723-1.173-1.274-1.219-2.98-.044L21.23 12.22c-3.633 2.746-7.743 5.54-11.41 8.277-.256.19-.464.36-.699.525-1.314.922-3.086 2.559-4.448 2.559Z" fill="#fbac1a" fill-rule="evenodd"/><path d="M41.712 55.171c-2.01 0-4.038-.567-5.483-1.19-2.253-.974-4.056-2.585-5.498-4.513-.536-.717-.802-1.286-1.219-2.119-2.233-4.46-1.397-10.62 1.884-14.284 1.124-1.255 1.13-1.286 2.544-2.35 4.34-3.264 11.112-3.245 15.464-.032 2.646 1.954 4.664 4.668 5.388 7.96.44 2.004.522 3.951.025 5.94-.653 2.611-1.666 4.66-3.567 6.556-1.044 1.042-2.604 2.23-3.991 2.793-.91.37-1.424.567-2.498.84-.826.209-2.085.4-3.049.4ZM26.277.001h.913a4.764 4.764 0 0 1 2.177.776c.567.377 1.13.792 1.682 1.21l16.874 12.268c1.16.85 2.255 1.606 3.418 2.478 1.61 1.205 2.161 2.207 2.161 4.29 0 1.607-1.287 3.303-2.558 3.894-3.109 1.444-5.242-.776-5.673-.89v2.78c.27.13.899.28 1.266.403 4.026 1.347 7.63 4.524 9.207 8.478 1.116 2.798 1.206 3.772 1.206 6.803 0 5.218-3.964 10.925-8.677 13.012-2.849 1.262-4.208 1.448-7.34 1.448-4.496 0-8.905-2.69-11.522-6.164-.248-.33-.843-1.162-.936-1.511H17.018c-2.85 0-4.91.056-6.757-1.808-1.983-2-2.03-3.257-2.03-6.423V24.026c-.312.084-3.706 3.116-6.925-.083C.18 22.823 0 21.944 0 20.356c0-1.68 1.057-2.794 2.225-3.671l18.62-13.526c.322-.221.53-.399.828-.618l2.53-1.809A4.581 4.581 0 0 1 26.276 0Zm1.197 47.384H22.47V30.144c0-.89.667-1.557 1.557-1.557h5.45c1.306 0 1.558 1.007 1.558 2.002 0 .238-.836 1.03-1.25 1.531-1.362 1.66-2.241 3.468-2.854 5.6-.629 2.188-.677 5.16-.124 7.442.196.808.495 1.474.669 2.223Zm5.34-18.13c-.41-.853-.444-1.226-1.222-1.783-.631-.453-1.248-.776-2.338-.776-1.418 0-5.473-.179-6.521.264-.247.104-.89.537-1.073.707a3.512 3.512 0 0 0-1.082 2.477v17.24h-6.006a4.438 4.438 0 0 1-4.243-3.097c-.471-1.529-.206-5.128-.206-7.136V22.47c.424-.114 3.765-2.627 4.179-2.94.714-.54 1.36-.973 2.067-1.492l2.118-1.553c.39-.265.638-.475 1.026-.754l3.1-2.239c.381-.287.638-.462 1.033-.746l3.161-2.29 8.21 6.029c.378.257.672.51 1.024.756l6.197 4.48c.348.26.724.636 1.143.748v4.004c-.711 0-1.008-.086-1.56-.115-1.09-.057-3.386.376-4.447.671-1.849.514-3.152 1.283-4.56 2.225ZM4.672 23.58c-2.4 0-4.325-3.216-1.4-5.404L19.975 6.071c.636-.457 5.009-3.755 5.57-3.996 2.038-.874 3.441.678 5.472 2.17.28.205.502.344.78.554l12.695 9.217c.262.184.49.372.762.572l4.78 3.453c.25.17.598.433.816.629 1.658 1.49.759 4.91-2.019 4.91-1.284 0-2.206-.977-3.025-1.534-2.987-2.034-6.466-4.826-9.411-6.83-2.534-1.723-5.541-4.139-8.12-5.895-1.723-1.173-1.274-1.219-2.98-.044L21.23 12.22c-3.633 2.746-7.743 5.54-11.41 8.277-.256.19-.464.36-.699.525-1.314.922-3.086 2.559-4.448 2.559Z" stroke-linejoin="round" stroke-linecap="round" stroke-width=".3" stroke="#fbac1a" fill="transparent"/></g><path d="M39.731 45.796c-1.863-1.248-4.915-5.746-7.572-4.378-1.3.669-.799 1.033-.202 2.392.222.506 5.39 5.388 5.807 5.634 2.011 1.187 3.802-.89 5.185-2.46 1.947-2.213 4.769-4.891 6.898-7.007 2.682-2.667 1.277-3.998 0-3.998-1.47 0-2.033.964-2.79 1.721-.906.906-6.842 7.771-7.327 8.096Z" fill="#fbac1a" fill-rule="evenodd" data-name="Path 6179"/></g></svg>