<svg xmlns="http://www.w3.org/2000/svg" width="46.691" height="46.688" viewBox="29.154 619.156 46.691 46.688"><g data-name="_2014180944880"><path d="m31.09 653.413 2.283-2.335 4.669 4.621-2.335 2.283-4.618-4.569Zm3.404-3.501 2.334-2.283 4.618 4.569-2.334 2.382-4.618-4.668Zm24.431-.316c-1.499 0-1.014-1.653-.195-1.653 1.193 0 1.009 1.653.195 1.653Zm-20.93-3.087 2.283-2.335 4.668 4.62-2.335 2.284-4.617-4.57Zm4.083-9.822 4.571-4.619 10.405 10.356-4.57 4.62-10.406-10.357Zm12.058-6.418 2.335-2.283 4.57 4.617-2.235 2.287-4.669-4.621Zm3.501-3.403 2.284-2.335 4.668 4.62-2.335 2.284-4.617-4.57Zm5.738-5.785 4.618 4.57-2.334 2.381-4.57-4.618 2.286-2.333Zm-11.159 9.261c0 .763 1.908 1.99 2.529 2.917l-2.312 2.26c-.588-.403-4.18-4.213-5.196-5.158-1.066-.992-1.78 1.144-3.384 2.218-.517-.138-.657-.778-1.166-.778-.434 0-.875.394-.875.778 0 .557.513.772.778 1.166-.106.396-1.588 1.742-1.97 2.115-.954.932-.524 1.177.681 2.383.636.636 3.793 3.88 4.206 4.157l-2.26 2.311c-.632-.416-2.172-2.505-2.894-2.505-.584 0-2.45 2.11-2.942 2.601l-7.001 7.001c-1.897 1.898-1.675 1.486.875 4.036l3.257 3.257c1.376 1.376 1.106 1.277 3.646-1.264l7.731-7.731c.549-.548.949-.697.949-1.483 0-.496-2.067-2.179-2.432-2.723l2.213-2.26c1.066.733 4.952 5.373 5.761 5.373.763 0 1.991-1.908 2.918-2.529l1.287 1.241c-.216.77-.218.342-.218 1.288 0 1.83 2.537 3.056 4.113 1.487 1.26-1.254.863-4.113-1.876-4.113-.418 0-.527.114-.875.195l-1.288-1.24c.414-.608 2.552-2.285 2.552-2.844 0-.585-2.151-2.492-2.65-2.99l-1.41-1.41c-.402-.402-1.104-1.013-1.386-1.434l2.334-2.236c1.047.701 1.966 2.43 2.917 2.43.554 0 1.78-1.439 2.358-2.017l6.661-6.661c.442-.442 1.951-1.762 2.085-2.287.15-.591-.383-.922-.772-1.311l-4.473-4.473c-1.57-1.571-1.26-1.318-4.23 1.652l-7.001 7.002c-.346.346-1.24 1.026-1.24 1.58Z" fill="#243941" fill-rule="evenodd" data-name="Path 2609"/><path d="M57.953 665.058c0 .924.917.778 1.556.778 2.29 0 4.957-.856 6.549-1.62 3.524-1.692 6.477-4.643 8.168-8.168 1.063-2.214 1.62-4.476 1.62-7.327 0-.47-.308-.778-.778-.778-1.036 0-.701 1.211-1.014 3.265-.347 2.284-1.22 4.314-2.43 6.128-2.33 3.497-6.127 6.057-10.406 6.708-.643.098-1.356.135-1.932.208-.717.09-1.333-.045-1.333.806Z" fill="#243941" fill-rule="evenodd" data-name="Path 2610"/><path d="M57.953 660.002c0 .869.332.972 1.07.972 4.009 0 7.407-2.04 9.698-5.083 1.508-2.005 3.42-7.947 1.485-7.947-.463 0-.73.173-.843.81-.16.905.118 1.852-.7 3.872-1.186 2.932-3.095 4.842-6.028 6.028-2.594 1.05-4.681.278-4.681 1.348Z" fill="#243941" fill-rule="evenodd" data-name="Path 2611"/><path d="M66.121 649.305c0-.867.068-1.264-.973-1.264-.772 0-.443 1.307-1.026 2.766-1.498 3.748-5.281 3.686-5.621 3.812-.503.186-.62.802-.36 1.2.446.685 2.239.196 2.96-.058 1-.35 1.679-.794 2.409-1.384 1.124-.907 2.61-3.082 2.61-5.072Z" fill="#243941" fill-rule="evenodd" data-name="Path 2612"/></g></svg>