<svg xmlns="http://www.w3.org/2000/svg" width="40.804" height="40.827" viewBox="0 0 40.804 40.827">
  <path id="Path_2609" data-name="Path 2609" d="M1983.76,83.785l2.283-2.335,4.669,4.621-2.335,2.283-4.618-4.569Zm3.4-3.5L1989.5,78l4.617,4.569-2.334,2.382Zm24.431-.316a.833.833,0,1,1-.195-1.653C2012.593,78.315,2012.409,79.969,2011.6,79.969Zm-20.931-3.088,2.283-2.335,4.668,4.621-2.335,2.283-4.618-4.569Zm4.084-9.822,4.571-4.619,10.4,10.356-4.57,4.62Zm12.058-6.418,2.335-2.283,4.569,4.617-2.235,2.287-4.668-4.621Zm3.5-3.4,2.283-2.335,4.668,4.621-2.335,2.283-4.617-4.569Zm5.738-5.785,4.618,4.57-2.334,2.382-4.57-4.618Zm-11.159,9.262c0,.763,1.908,1.991,2.528,2.917l-2.311,2.259c-.589-.4-4.181-4.213-5.2-5.158-1.065-.992-1.78,1.144-3.383,2.218-.517-.138-.657-.778-1.167-.778a.9.9,0,0,0-.875.778c0,.558.513.772.778,1.167a12.8,12.8,0,0,1-1.97,2.114c-.954.932-.524,1.178.682,2.383.636.636,3.793,3.881,4.206,4.157l-2.26,2.311c-.633-.416-2.172-2.505-2.894-2.505-.584,0-2.45,2.11-2.942,2.6l-7,7c-1.9,1.9-1.675,1.485.875,4.035l3.257,3.257c1.376,1.376,1.106,1.277,3.646-1.264l7.731-7.731c.549-.549.948-.7.948-1.483,0-.5-2.067-2.179-2.431-2.722l2.213-2.26c1.066.733,4.952,5.372,5.761,5.372.763,0,1.991-1.908,2.917-2.528l1.287,1.241a2.372,2.372,0,0,0-.218,1.288,2.414,2.414,0,1,0,2.237-2.625,2.843,2.843,0,0,0-.875.195l-1.288-1.241c.414-.607,2.551-2.284,2.551-2.843,0-.584-2.151-2.492-2.65-2.99l-1.41-1.41a13.354,13.354,0,0,1-1.386-1.434l2.333-2.236c1.048.7,1.966,2.431,2.917,2.431.554,0,1.78-1.44,2.358-2.018l6.661-6.661c.442-.442,1.951-1.761,2.085-2.287.15-.591-.383-.922-.772-1.311l-4.473-4.473c-1.57-1.571-1.26-1.318-4.23,1.653l-7,7c-.346.346-1.24,1.026-1.24,1.58Z" transform="translate(-1981.824 -49.528)" fill="#243941" fill-rule="evenodd"/>
</svg>
