<svg xmlns="http://www.w3.org/2000/svg" width="19.2" height="18" viewBox="0 0 19.2 18">
  <g id="video-gallery-line" transform="translate(-2.667 -2.667)">
    <path id="Path_2852" data-name="Path 2852" d="M20.739,13.333H3.795a1.128,1.128,0,0,0-1.128,1.128V25.405a1.128,1.128,0,0,0,1.128,1.128H20.739a1.128,1.128,0,0,0,1.128-1.128V14.461A1.128,1.128,0,0,0,20.739,13.333Zm-.072,12H3.867v-10.8h16.8Z" transform="translate(0 -5.867)" fill="#fff"/>
    <path id="Path_2853" data-name="Path 2853" d="M22.587,3.267a.6.6,0,0,0-.6-.6H8.787a.6.6,0,0,0-.6.6v.6h14.4Z" transform="translate(-3.036 0)" fill="#fff"/>
    <path id="Path_2854" data-name="Path 2854" d="M22.293,8.6a.6.6,0,0,0-.6-.6H6.093a.6.6,0,0,0-.6.6v.6h16.8Z" transform="translate(-1.555 -2.933)" fill="#fff"/>
    <path id="Path_2855" data-name="Path 2855" d="M16.529,27.04a1.044,1.044,0,0,0,.558.168,1.008,1.008,0,0,0,.414-.09L23.363,24.5a1.014,1.014,0,0,0,0-1.86L17.5,20.026a1.02,1.02,0,0,0-1.434.93v5.232a1.02,1.02,0,0,0,.462.852Zm.378-6.084a.174.174,0,0,1,.084-.15.18.18,0,0,1,.1,0,.162.162,0,0,1,.072,0l5.862,2.61a.174.174,0,0,1,.108.168.168.168,0,0,1-.108.162l-5.862,2.616a.168.168,0,0,1-.168,0,.186.186,0,0,1-.084-.15Z" transform="translate(-7.37 -9.499)" fill="#fff"/>
  </g>
</svg>
