<svg id="location" xmlns="http://www.w3.org/2000/svg" width="18.624" height="23.704" viewBox="0 0 18.624 23.704">
  <path id="Path_2620" data-name="Path 2620" d="M20.733,20.466a4.233,4.233,0,1,1,4.233-4.233A4.233,4.233,0,0,1,20.733,20.466Zm0-6.772a2.54,2.54,0,1,0,2.54,2.54A2.54,2.54,0,0,0,20.733,13.693Z" transform="translate(-11.421 -6.921)" fill="#fbac1a"/>
  <path id="Path_2621" data-name="Path 2621" d="M16.812,26.7,9.671,18.281q-.149-.19-.295-.382A9.218,9.218,0,0,1,7.5,12.312a9.312,9.312,0,1,1,18.624,0A9.214,9.214,0,0,1,24.249,17.9v0s-.254.334-.292.378Zm-6.085-9.824s.2.261.243.317l5.842,6.89,5.85-6.9c.037-.047.235-.309.236-.31a7.535,7.535,0,0,0,1.533-4.565,7.619,7.619,0,1,0-15.238,0,7.539,7.539,0,0,0,1.535,4.567Z" transform="translate(-7.5 -3)" fill="#fbac1a"/>
</svg>
