<svg xmlns="http://www.w3.org/2000/svg" width="19.209" height="19.208"><path d="M18.91.118a.67.67 0 0 1 .289.686l-2.744 16.464a.676.676 0 0 1-.343.483.658.658 0 0 1-.59.032L10.667 15.8l-2.594 3.162a.631.631 0 0 1-.526.246.58.58 0 0 1-.235-.043.673.673 0 0 1-.327-.251.67.67 0 0 1-.124-.392v-3.74L16.122 3.43 4.664 13.345.43 11.61c-.264-.1-.407-.297-.429-.59-.014-.286.1-.497.343-.632L18.181.097A.656.656 0 0 1 18.524 0c.142 0 .271.04.385.118Z" fill="#fff" fill-rule="evenodd" data-name="Path 5973"/></svg>