<svg xmlns="http://www.w3.org/2000/svg" width="33.215" height="32.793" viewBox="0 0 33.215 32.793">
  <g id="Layer_x0020_1" transform="translate(-0.011 0.02)">
    <g id="_2550192783984" transform="translate(0.011 -0.02)">
      <path id="Path_2848" data-name="Path 2848" d="M46.013,45.581l1.036.6c1.97,1.157.695.274,3.863-.749.9-.289.742-.588.937-2.052.119-.9-.242-.714,2.272-.714.309,0,.331.989.405,1.515.215,1.51.141.8,2.178,1.8,1.446.717.947,1.144,2.506.208.353-.213.709-.4,1.026-.611a7.263,7.263,0,0,1,1.493,1.849c-.294.44-1.636,1.51-1.636,1.992,0,.091.381,1.1.457,1.392a10.14,10.14,0,0,1,.257,1.664c.059.62.536.657,1,.845a10.812,10.812,0,0,0,1.411.509,9.227,9.227,0,0,1-.213,1.211,10.323,10.323,0,0,0-.284,1.137l-1.839-.156c-1.268-.143-.722.564-2.089,1.916-1.167,1.152-1.016.769-.593,2.264a6.92,6.92,0,0,1,.326,1.1A7.371,7.371,0,0,1,56.4,62.369a3.486,3.486,0,0,0-.484-.8c-.19-.287-.339-.524-.541-.811-.554-.781-.761-.314-2.459-.314-1,0-1.481-.47-2.022.326l-1.036,1.594-1.115-.45c-.383-.178-.67-.361-1.018-.546a7.586,7.586,0,0,1,.311-1.112c.482-1.473.549-1.2-.541-2.284-1.263-1.256-.927-2.1-1.99-1.963l-1.9.166a13.953,13.953,0,0,1-.569-2.346,8.37,8.37,0,0,0,1.362-.487c1.757-.65.581-.487,1.528-3.166.3-.863.494-.821-.489-1.8l-.907-.942a8.611,8.611,0,0,1,1.493-1.849Zm2.133-.356L46.6,44.35c-.774-.467-.934-.388-1.535.218-.554.561-2.044,2.227-2.044,3.006,0,.428.522.727.751,1.026.287.371.662.635.882.966-.084.363-.208.687-.314,1.11a4.788,4.788,0,0,0-.185,1.31l-1.392.529c-.576.22-1.1.255-1.1.895,0,1,.534,3.609,1.036,4.014.408.329,1.584-.032,2.662-.032a7.279,7.279,0,0,0,1.565,1.921,15.024,15.024,0,0,0-.712,2.346c0,.514.92.957,1.327,1.162l.8.405c1.5.685,1.921.942,2.521.027a13.51,13.51,0,0,0,.966-1.523c.361,0,.388.072.781.072h1c.4,0,.423-.072.781-.072.21.4.492.774.754,1.167.21.314.524.966.954.966a11.221,11.221,0,0,0,2.23-.828,9.579,9.579,0,0,0,.942-.551c1.031-.692.816-.7.43-2.01-.477-1.619-.522-.838.475-2.066a5.9,5.9,0,0,0,.69-1.018c1.678,0,2.556.62,2.949-.393a11.353,11.353,0,0,0,.744-3.025c.109-1.256-.079-1.073-1.866-1.75-.786-.3-.544-.267-.7-1.152-.1-.566-.3-.994-.418-1.5a8.309,8.309,0,0,1,.944-.976c.208-.205.267-.334.462-.534.178-.18.336-.329.262-.65a5.946,5.946,0,0,0-.732-1.263,8.961,8.961,0,0,0-1.886-2.029c-.462-.2-.7.094-1.347.455l-.932.571c-.218.116-.133.173-.65-.151l-1.659-.759c-.4-.227-.24-1.9-.536-2.452-.356-.657-3.312-.539-4.209-.358-.781.158-.682.9-.85,2.138-.1.744.067.526-1.008.984a14.47,14.47,0,0,0-1.3.692Z" transform="translate(-31.373 -31.069)" fill="#243941" fill-rule="evenodd"/>
      <path id="Path_2849" data-name="Path 2849" d="M8.533,2.9A11.106,11.106,0,0,1,7.584,2l-.04-.032-.116-.1c-.855-.714-.606-1.251-2.927.48l-.858.707c-.949.877-.784,1.055-.129,2.158.784,1.322.672.868-.027,2.094a8.09,8.09,0,0,0-.5,1.206c-.608,0-1.374.151-1.99.215C-.116,8.849.2,10.087.03,11.18a5.84,5.84,0,0,0,.042,1.036c0,1.565.413,1.419,1.706,1.636,1.172.2,1.063.042,1.2.5l.5,1.2c.477.954.556.487,0,1.419-.85,1.421-1.251,1.426-.264,2.4.507.5,2.192,2.081,2.9,2.081.43,0,1.169-.9,1.515-1.189.235-.2.3-.185.477-.447.457.106.895.3,1.364.413.5.124,2.264.6,2.264-.413a.649.649,0,0,0-.576-.7c-.447-.067-.759-.074-1.184-.166-.685-.148-1.856-.623-2.007-.623-.383,0-1.545,1.313-1.921,1.565A6.056,6.056,0,0,1,4.2,18.4c1.532-2.9,1.54-1.379.544-3.389A7.471,7.471,0,0,1,4.165,13.6c-.205-.717-.222-.781-1.016-.9a16.587,16.587,0,0,0-1.728-.264V10.651c0-.358.064-.319.072-.64a12.987,12.987,0,0,0,1.75-.171c1.488-.208.569-.949,2.039-2.867a1.328,1.328,0,0,0,.336-.66c0-.336-1.013-1.743-1.137-2.2A9.441,9.441,0,0,1,6.4,2.756c.751.5,1.3,1.636,1.992,1.636l1.421-.428c2.037-.494,1.856.3,2.469-1.228a12.245,12.245,0,0,0,.519-1.33,8.679,8.679,0,0,1,2.346.569,12.71,12.71,0,0,0-.213,2.2c0,.447.341.544.625.724,1.219.774,1.992,1.906,2.361,1.906a15.948,15.948,0,0,0,2.276-.64,10.248,10.248,0,0,1,1.075,2.482,1.6,1.6,0,0,0,.163.405.693.693,0,0,0,1.228-.405,6.457,6.457,0,0,0-.269-.979,7.812,7.812,0,0,0-.371-.91c-.082-.171-.119-.3-.193-.447L21.1,5.057c-.433-.581-1.028-.272-1.866,0a9.237,9.237,0,0,0-1.023.329,8.129,8.129,0,0,0-1.921-1.636L16.507,1.9c.072-.811-.057-.885-.766-1.159A10.839,10.839,0,0,0,12.3-.02c-.573,0-1.041,1.649-1.226,2.118-.21.531-.329.287-1.177.46-.477.1-.9.23-1.369.339Z" transform="translate(-0.011 0.02)" fill="#243941" fill-rule="evenodd"/>
      <path id="Path_2850" data-name="Path 2850" d="M70.372,73.638a3.347,3.347,0,0,1,5.673-2.615,3.383,3.383,0,0,1,.707,3.873A3.293,3.293,0,0,1,74,76.767a3.075,3.075,0,0,1-2.65-.976,2.666,2.666,0,0,1-.653-.912,2.986,2.986,0,0,1-.324-1.241Zm-1.352-.5A4.71,4.71,0,0,0,76.9,76.9a4.709,4.709,0,1,0-6.513-6.8,4.613,4.613,0,0,0-1.369,3.04Z" transform="translate(-51.962 -51.728)" fill="#243941" fill-rule="evenodd"/>
      <path id="Path_2851" data-name="Path 2851" d="M27.59,31.683a4.586,4.586,0,0,0,1.154,3.4,4.493,4.493,0,0,0,1.08.912,6.021,6.021,0,0,0,1.463.6.808.808,0,0,0,.712-.64c0-.6-.423-.66-.875-.833a2.934,2.934,0,0,1-1.065-.643,3.358,3.358,0,0,1,4.175-5.243,3.4,3.4,0,0,1,1.389,2.309,5.47,5.47,0,0,0,.047,1.233.678.678,0,0,0,1.308-.24,4.584,4.584,0,0,0-1.369-3.893,4.717,4.717,0,0,0-8.018,3.04Z" transform="translate(-20.773 -20.513)" fill="#243941" fill-rule="evenodd"/>
    </g>
  </g>
</svg>
