<svg xmlns="http://www.w3.org/2000/svg" width="24.437" height="25.098" viewBox="0 0 24.437 25.098">
  <g id="Group_5396" data-name="Group 5396" transform="translate(0 0)">
    <g id="settings" transform="translate(0 0)">
      <path id="Path_3971" data-name="Path 3971" d="M25.721,16.292V14.916l1.726-1.51a1.8,1.8,0,0,0,.342-2.292l-2.121-3.6a1.814,1.814,0,0,0-2.13-.809l-2.184.737a10.2,10.2,0,0,0-1.178-.674l-.458-2.265a1.8,1.8,0,0,0-1.8-1.447H13.711a1.8,1.8,0,0,0-1.8,1.447l-.458,2.265a10.319,10.319,0,0,0-1.187.674L8.129,6.673a1.8,1.8,0,0,0-.575-.054A1.8,1.8,0,0,0,6,7.518l-2.121,3.6a1.8,1.8,0,0,0,.369,2.256l1.7,1.555V16.3l-1.7,1.51A1.8,1.8,0,0,0,3.877,20.1L6,23.7a1.814,1.814,0,0,0,2.13.809l2.184-.737a10.2,10.2,0,0,0,1.178.674l.458,2.265a1.8,1.8,0,0,0,1.8,1.447H17.99a1.8,1.8,0,0,0,1.8-1.447l.458-2.265a10.32,10.32,0,0,0,1.187-.674l2.175.737a1.814,1.814,0,0,0,2.13-.809l2.049-3.6a1.8,1.8,0,0,0-.369-2.256ZM24.112,22.8l-3.083-1.043a7.964,7.964,0,0,1-2.436,1.411L17.954,26.4H13.711L13.073,23.2a8.414,8.414,0,0,1-2.427-1.411L7.554,22.8,5.432,19.2l2.445-2.157a8,8,0,0,1,0-2.814l-2.445-2.22,2.121-3.6L10.637,9.46a7.964,7.964,0,0,1,2.436-1.411l.638-3.227h4.243l.638,3.191a8.414,8.414,0,0,1,2.427,1.411l3.092-1.007,2.121,3.6L23.788,14.17a8,8,0,0,1,0,2.814l2.445,2.22Z" transform="translate(-3.619 -3.059)" fill="#fbac1a"/>
      <path id="Path_3972" data-name="Path 3972" d="M20.393,25.787a5.393,5.393,0,1,1,5.393-5.393,5.339,5.339,0,0,1-5.393,5.393Zm0-8.989a3.515,3.515,0,1,0,2.567,1.028A3.515,3.515,0,0,0,20.393,16.8Z" transform="translate(-8.18 -7.844)" fill="#fbac1a"/>
    </g>
  </g>
</svg>
