<svg xmlns="http://www.w3.org/2000/svg" width="22.96" height="24.595" viewBox="0 0 22.96 24.595">
  <g id="Group_4387" data-name="Group 4387" transform="translate(-10.535 -10.702)">
    <g id="share-alt" transform="translate(10.535 10.702)">
      <g id="Group_4432" data-name="Group 4432" transform="translate(0 0)">
        <path id="Path_2640" data-name="Path 2640" d="M19.346,16.948a3.889,3.889,0,0,0-3.085,1.521L7.861,13.7a3.879,3.879,0,0,0,0-2.528l8.4-4.767a3.891,3.891,0,1,0-.706-1.485L7.012,9.771a3.894,3.894,0,1,0,0,5.335l8.543,4.849a3.894,3.894,0,1,0,3.791-3.007Zm0-15.167a2.255,2.255,0,1,1-2.255,2.255,2.255,2.255,0,0,1,2.255-2.255ZM4.179,14.693a2.255,2.255,0,1,1,2.255-2.255,2.255,2.255,0,0,1-2.255,2.255Zm15.167,8.4A2.255,2.255,0,1,1,21.6,20.842,2.255,2.255,0,0,1,19.346,23.1Z" transform="translate(-0.281 -0.141)" fill="#fff"/>
      </g>
    </g>
  </g>
</svg>
