<svg xmlns="http://www.w3.org/2000/svg" width="22.359" height="24.083" viewBox="17 191.958 22.359 24.083"><g data-name="share"><path d="M35.063 207.45a4.296 4.296 0 0 0-3.342 1.624l-6.28-3.926a3.832 3.832 0 0 0 0-2.269l6.28-3.926a4.296 4.296 0 1 0-.954-2.672c.004.385.062.766.172 1.134l-6.28 3.927a4.296 4.296 0 1 0 0 5.343l6.28 3.927c-.11.368-.168.75-.172 1.134a4.296 4.296 0 1 0 4.296-4.296Zm0-13.746a2.577 2.577 0 1 1 0 5.155 2.577 2.577 0 0 1 0-5.155Zm-13.746 12.887a2.577 2.577 0 1 1 0-5.155 2.577 2.577 0 0 1 0 5.155Zm13.746 7.732a2.577 2.577 0 1 1 0-5.155 2.577 2.577 0 0 1 0 5.155Z" fill="#243941" fill-rule="evenodd" data-name="Path 6261"/></g></svg>