<svg xmlns="http://www.w3.org/2000/svg" width="26.528" height="18.657" viewBox="241.898 610.695 26.528 18.657"><g data-name="road"><path d="M257.363 621.481v-.058l-.35-4.664a.492.492 0 0 0-.16-.328.473.473 0 0 0-.335-.138h-2.711a.473.473 0 0 0-.336.138.492.492 0 0 0-.16.328l-.35 4.664v.058c-.01.117.03.214.117.292.087.078.19.117.306.117h3.556a.446.446 0 0 0 .306-.117.334.334 0 0 0 .117-.292Zm11.063 6.807c0 .71-.223 1.064-.67 1.064h-10.262a.425.425 0 0 0 .321-.138.412.412 0 0 0 .117-.328l-.292-3.731a.492.492 0 0 0-.16-.328.473.473 0 0 0-.336-.139h-3.964a.473.473 0 0 0-.335.139.492.492 0 0 0-.16.328l-.292 3.73c-.01.127.029.237.116.329a.425.425 0 0 0 .321.138H242.57c-.447 0-.67-.354-.67-1.064 0-.524.126-1.088.378-1.69l6.078-15.217c.078-.185.204-.345.38-.481a.888.888 0 0 1 .553-.205h4.941a.473.473 0 0 0-.335.139.492.492 0 0 0-.16.328l-.219 2.798a.41.41 0 0 0 .117.336.436.436 0 0 0 .32.13h2.42a.436.436 0 0 0 .32-.13.41.41 0 0 0 .117-.336l-.218-2.798a.492.492 0 0 0-.16-.328.473.473 0 0 0-.336-.139h4.941c.195 0 .38.069.554.205.175.136.301.296.379.48l6.078 15.218c.253.602.379 1.166.379 1.69Z" fill="#fbac1a" fill-rule="evenodd" data-name="Path 2631"/></g></svg>