<svg xmlns="http://www.w3.org/2000/svg" width="22.325" height="23.821" viewBox="1.485 0 22.325 23.821"><g data-name="Group 4395"><path d="M12.648 23.821a11.155 11.155 0 0 0 2.918-21.923A1.487 1.487 0 0 0 14.135 0H11.16a1.487 1.487 0 0 0-1.43 1.898 11.155 11.155 0 0 0 2.918 21.923Zm9.667-11.155c0 5.34-4.328 9.668-9.667 9.668-5.34 0-9.668-4.329-9.668-9.668 0-5.34 4.328-9.668 9.668-9.668 5.339 0 9.667 4.329 9.667 9.668Z" fill="#fbac1a" fill-rule="evenodd" data-name="Path 2624"/><path d="m11.071 11.066 7.362-4.21-4.209 7.363-7.36 4.21 4.205-7.363Z" fill="#fbac1a" fill-rule="evenodd" data-name="Path 2625"/></g></svg>