<svg xmlns="http://www.w3.org/2000/svg" width="26" height="23.367" viewBox="-0.001 0 26 23.367"><g data-name="_2239279860000"><path d="M9.597 19.608c1.257-1.876.438-2.934 1.79-4.202.282-.266.981-.571 1.511-.571.126 0 .213.189.47.445.311.31 1.25 1.294 1.46 1.434-.051.107-.075.246-.12.388-.564 1.757-1.765 2.59-3.645 2.638-.363.009-1.287-.132-1.466-.132ZM.965 6.101c0-2.425 2.927-4.059 4.943-4.654 2.305-.68 4.196-.627 6.438.178a10.42 10.42 0 0 1 2.83 1.538c1.159.869 2.362 2.2 3.02 3.53l.694 1.54-4.388 3.99c-.296.23-1.109 1.073-1.462 1.434-.316.324-.651.116-1.621.562-2.091.962-1.83 3.39-2.344 4.41-.418.83-1.427.298-1.392 1.075.011.249.165.384.384.47 1.866.73 4.415.893 6.066-.448.736-.598 1.286-1.474 1.548-2.413.04-.144.064-.25.098-.359.105-.331.355-.39.71-.814a6.3 6.3 0 0 1 .459-.505l1.676-1.777c.139-.15.532-.66.723-.8 0 .796-.473 2.189-.795 2.911-.188.423-.39.86-.636 1.243-.644 1-1.13 1.564-2.009 2.41-1.792 1.725-4.709 2.78-7.224 2.78-2.153 0-4.7-.995-6.134-2.246-.475-.415-.565-.474-.976-1.054-.113-.16-.19-.33-.288-.525-.476-.948-.404-2.217.17-2.996.32-.431.723-.756 1.155-1.08 1.235-.922 1.807-1.395 1.807-3.017C4.417 8.954.964 9.025.964 6.1Zm23.663-1.168c-.106.398-1.762 2.47-2.117 2.91l-3.48 4.086c-.14.139-.166.173-.286.324l-1.538 1.66c-.21.262-.378.419-.615.655-.272.27-.879 1.03-1.257 1.283L13.8 14.289l3.864-3.676c.825-.658 2.15-1.974 3.003-2.633 1.125-.869 2.816-2.441 3.961-3.047Zm0 0ZM0 5.898C0 7.902.672 8.65 2.082 9.706c.387.29.898.663 1.14 1.094.318.566.296 1.163.012 1.735-.726 1.461-3.235 1.46-3.235 4.89 0 3.55 5.324 5.941 8.38 5.941 2.41 0 3.96-.39 5.941-1.421.466-.243.972-.576 1.392-.893 1.743-1.313 3.05-2.94 3.925-5.114.367-.91.786-2.446.774-3.695-.004-.458.193-.669.6-1.077l2.313-2.764c.751-.928 2.675-3.19 2.675-4.282 0-.306-.282-.558-.71-.558-.822 0-3.12 1.935-3.96 2.59-.11.085-.225.171-.341.27-.23.194-.44.357-.663.555l-.673.545c-.178-.764-1.151-2.28-1.595-2.872-.093-.123-.147-.203-.246-.314-.11-.122-.146-.19-.253-.305-1.44-1.548-2.642-2.441-4.666-3.255C10.49-.19 7.855-.251 5.39.572c-1.558.52-3.344 1.464-4.353 2.757C.557 3.944.001 4.84.001 5.898Z" fill="#243840" fill-rule="evenodd" data-name="Path 6220"/><path d="M9.343 5.288c0-.37.034-.563.29-.827.738-.764 1.945-.147 1.945.574 0 .447.033.593-.29.928-.707.735-1.945.223-1.945-.675Zm1.118 2.032c.654 0 1.146-.256 1.512-.622 1.333-1.333.373-3.593-1.512-3.593-1.73 0-2.675 1.938-1.756 3.279.055.08.055.066.114.14.407.5.954.795 1.641.795Z" fill="#243840" fill-rule="evenodd" data-name="Path 6221"/><path d="M5.586 18.288h-.254c-.487 0-.965-.478-.965-.965v-.254c0-.487.49-.964.965-.964h.254c1.331 0 1.333 2.183 0 2.183Zm-2.234-1.117c0 1.198.935 2.132 2.132 2.132 1.184 0 2.087-.963 2.112-2.088.026-1.14-.948-2.126-2.112-2.126-1.155 0-2.132.933-2.132 2.082Z" fill="#243840" fill-rule="evenodd" data-name="Path 6222"/><path d="M15.183 7.421c1.455 0 1.665 2.234-.05 2.234-.564 0-1.066-.573-1.049-1.11.019-.572.5-1.124 1.1-1.124Zm-2.081 1.117c0 1.232 1.047 2.133 2.081 2.133 1.136 0 2.105-.888 2.149-2 .026-.656-.191-1.108-.515-1.512-.703-.875-2.191-.988-3.12-.056a2.021 2.021 0 0 0-.596 1.435Z" fill="#243840" fill-rule="evenodd" data-name="Path 6223"/><path d="M3.758 6.913c0-1.741 2.234-1.436 2.234-.203 0 1.742-2.234 1.437-2.234.203Zm-1.016-.101c0 1.737 2.21 2.894 3.618 1.486 1.5-1.5.113-3.568-1.282-3.568-.48 0-.722-.025-1.165.206-.637.331-1.171 1.053-1.171 1.876Z" fill="#243840" fill-rule="evenodd" data-name="Path 6224"/></g></svg>