<svg xmlns="http://www.w3.org/2000/svg" width="13.932" height="11.378" viewBox="0 0 13.932 11.378">
  <path id="Path_2618" data-name="Path 2618" d="M14.039,13.756V11.143A1.4,1.4,0,0,0,12.646,9.75H4.286a1.4,1.4,0,0,0-1.393,1.393v2.613a1.861,1.861,0,0,0-1.393,1.8v3.251a.93.93,0,0,0,.929.929h.464v1.393h.929V19.735H13.11v1.393h.929V19.735H14.5a.93.93,0,0,0,.929-.929V15.555a1.861,1.861,0,0,0-1.393-1.8Zm-9.753,5.05H2.429V15.555a.929.929,0,1,1,1.858,0Zm7.431,0h-6.5V16.02h6.5Zm.059-3.715H5.157a1.865,1.865,0,0,0-1.334-1.334V11.143a.465.465,0,0,1,.464-.464h8.359a.465.465,0,0,1,.464.464v2.613A1.865,1.865,0,0,0,11.776,15.091ZM14.5,18.806H12.646V15.555a.929.929,0,1,1,1.858,0v3.251Z" transform="translate(-1.5 -9.75)" fill="#fbac1a"/>
</svg>
