<svg xmlns="http://www.w3.org/2000/svg" width="19.514" height="16.954" viewBox="64.743 623 19.514 16.954"><g data-name="upload"><g data-name="Group 5311"><path d="M65.353 633.856a.61.61 0 0 1 .61.61v3.048c0 .674.546 1.22 1.22 1.22h14.635a1.22 1.22 0 0 0 1.22-1.22v-3.049a.61.61 0 0 1 1.219 0v3.05a2.44 2.44 0 0 1-2.44 2.439H67.183a2.44 2.44 0 0 1-2.439-2.44v-3.049a.61.61 0 0 1 .61-.61Z" fill="#243941" fill-rule="evenodd" data-name="Path 2902"/><path d="M74.068 623.18a.61.61 0 0 1 .864 0l3.659 3.658a.61.61 0 1 1-.864.863l-2.617-2.618v10.724a.61.61 0 0 1-1.22 0v-10.724l-2.617 2.618a.61.61 0 1 1-.864-.863l3.66-3.659Z" fill="#243941" fill-rule="evenodd" data-name="Path 2903"/></g></g></svg>