<svg xmlns="http://www.w3.org/2000/svg" width="30.417" height="33.489" viewBox="0 0 30.417 33.489">
  <g id="Layer_x0020_1" transform="translate(0.15 0.15)">
    <path id="Path_6200" data-name="Path 6200" d="M5.082,4.541H15.06V18.923H5.082V4.541ZM.885,22.294H4.738V32.34H.885Zm6.33-6.95h1.17v1.376H7.215Zm0-8.6h1.17V8.12H7.215V6.743Zm4.541,8.6H13v1.376H11.757Zm0-8.6H13V8.12H11.757V6.743ZM7.215,11.009h1.17v1.376H7.215Zm4.541,0h1.032c.159,0,.207.048.207.207v1.17H11.757Zm6.881-5.642a.382.382,0,0,0,.344.413h4.06c.661,0,.705-.895-.206-.895H19.326c-.378,0-.688.091-.688.482Zm0,3.027c0,.214.071.481.344.481h4.2c.444,0,.444-.825,0-.825h-4.2A.39.39,0,0,0,18.637,8.394ZM24.1,14.834a1.583,1.583,0,0,1-.4,1.231,1.812,1.812,0,0,1-1.226.357q-1.176,0-1.176-.993a2.6,2.6,0,0,1,.054-.494l.4.1a2.4,2.4,0,0,0-.029.389.444.444,0,0,0,.181.4,1.071,1.071,0,0,0,.574.12,1.442,1.442,0,0,0,.909-.232,1.064,1.064,0,0,0,.287-.863V12.23H24.1v2.6Zm1.175.98h-.159a.766.766,0,0,1-.627-.232,1.153,1.153,0,0,1-.189-.734V12.23h.425v2.609c0,.332.123.5.37.5h.181v.477Zm.966-.966a1.1,1.1,0,0,1-.2.746.793.793,0,0,1-.616.22H25.27v-.477h.181c.246,0,.369-.167.369-.5v-.447h.426v.458Zm-.456,1.666h-.36v-.36h.36Zm-.655,0h-.362v-.36h.362Zm2.73-2.041a2.641,2.641,0,0,1,.159.917,1.514,1.514,0,0,1-.452,1.173,1.741,1.741,0,0,1-1.226.415,4.768,4.768,0,0,1-.481-.034l.09-.431a2.288,2.288,0,0,0,.4.039q1.247,0,1.247-1.162a2.106,2.106,0,0,0-.25-.917h.516Zm-17-3.672v1.927c0,.318.153.551.481.551h2a.426.426,0,0,0,.481-.481V10.527a.39.39,0,0,0-.344-.344H11.343c-.386,0-.481.238-.481.619ZM6.32,10.664v2.064c0,.318.153.551.481.551h2a.426.426,0,0,0,.482-.481V10.665c0-.232-.122-.481-.344-.481H6.8a.425.425,0,0,0-.481.481ZM10.862,6.4c0,2.961-.421,2.615,2.271,2.615.31,0,.688-.13.688-.413V6.33a.426.426,0,0,0-.481-.481H11.412a.517.517,0,0,0-.551.551Zm0,8.6v2.064c0,.788,1.115.551,2.408.551.317,0,.551-.153.551-.481V14.863c0-.612-1.609-.413-2.408-.413a.517.517,0,0,0-.551.551ZM6.32,6.4c0,2.961-.421,2.615,2.271,2.615.31,0,.688-.13.688-.413V6.33A.426.426,0,0,0,8.8,5.848H6.87A.517.517,0,0,0,6.32,6.4Zm0,8.6v2.064c0,.788,1.115.551,2.408.551.251,0,.551-.19.551-.413v-2.34c0-.612-1.609-.413-2.408-.413A.517.517,0,0,0,6.32,15ZM5.632,30.551V24.014c0-.253.267-.215.885-.422l3.037-.954,9.223,2.475a1.237,1.237,0,0,1-.484,2.342,12.885,12.885,0,0,1-1.651-.413l-3.318-.879a15.5,15.5,0,0,0-1.706-.428.442.442,0,0,0-.292.7c.175.221,5.043,1.441,5.8,1.64a2.454,2.454,0,0,0,2.528-.294,2.028,2.028,0,0,0,.543-.764c.063-.166.056-.256.1-.385.106-.337.416-.3,1.086-.7,1.139-.693,3.426-1.733,4.69-2.467.655-.381,1.4-.883,2.18-.248a1.3,1.3,0,0,1,.077,1.748c-.256.292-9.193,5.318-10.438,6.076-.591.36-.66.341-1.587.34l-5.721.128a22.09,22.09,0,0,1-4.206-.659c-.292-.049-.738-.023-.738-.294ZM-.01,21.95v10.6a1.113,1.113,0,0,0,.138.551c.7.162,4.183.069,5.161.069.505,0,.344-1.073.344-1.582l2.93.579a6.292,6.292,0,0,0,.992.178,31.856,31.856,0,0,0,3.48-.029c1.3-.2,3.774.221,4.916-.314l7.8-4.513a19.109,19.109,0,0,0,3.258-2.04,2.082,2.082,0,0,0-2.646-3.128l-5.487,2.908a2.377,2.377,0,0,1-.659.3c-.248-1.062-1.391-1.3-2.072-1.506l-5.7-1.521c-.467-.123-.906-.263-1.4-.386-1.822-.451-1.093-.561-3.439.222l-1.969.645c0-.781.188-1.583-.551-1.583H.541a.518.518,0,0,0-.551.551Zm24.978-2.684a4.511,4.511,0,0,1-2.086-.392,4.6,4.6,0,0,1-1.74-1.425,4.335,4.335,0,0,1-.853-2.931,4.468,4.468,0,0,1,4.2-4.2,4.226,4.226,0,0,1,2.2.413,3.71,3.71,0,0,1,.648.384,2.261,2.261,0,0,1,.3.25,2.954,2.954,0,0,1,.3.25,4.778,4.778,0,0,1,.877,1.256,4.5,4.5,0,0,1-3.846,6.392Zm-4.06-8.12H18.844c-.222.331-.273.177-.138.757a6.655,6.655,0,0,0,1.445.069,6.428,6.428,0,0,0-.688,2.271c-.848,0-.906.115-.757.757a1.3,1.3,0,0,0,.688.138,6.462,6.462,0,0,0,.641,2.18,5.86,5.86,0,0,0,.587.859c.224.277.505.457.7.746H17.812V3.716L24.349,2l.006,7.024c.009.833,0,.164-1.6.809a4.747,4.747,0,0,0-1.452.888c-.326.306-.331.188-.4.43ZM16.917,3.509V18.923h-.963V4.335c0-.31-.13-.688-.413-.688H12.995V.826h5.367c0,2.286.231,1.8-.8,2.087-.367.1-.642.155-.642.6ZM12.1.481V3.647H4.738a.425.425,0,0,0-.481.481V19.336c0,.683,1,.481,2.133.481H22.354c1.482-.009,2.047.871,4.552-.126A5.417,5.417,0,0,0,29.963,16a5.35,5.35,0,0,0-4.15-6.46c-.771-.138-.639.361-.639-1.77l0-5.988c.013-1.306-.526-.805-3.181-.081-.5.136-.91.238-1.407.383-.257.075-.464.119-.7.19a5.988,5.988,0,0,0-.7.2V.206C19.046.111,19.009,0,18.844,0h-6.4c-.223,0-.344.25-.344.481Z" transform="translate(0.01 0)" fill="#fbac1a" stroke="#fbac1a" stroke-width="0.3" fill-rule="evenodd"/>
  </g>
</svg>
