<svg xmlns="http://www.w3.org/2000/svg" width="55.223" height="60.884" viewBox="68.339 293 55.223 60.884"><g data-name="Layer_x0020_1"><g data-name="Path 6200"><path d="M77.68 301.33h18.3v26.38h-18.3v-26.38Zm-7.7 32.564h7.068v18.427H69.98v-18.427Zm11.612-12.748h2.146v2.524h-2.146v-2.524Zm0-15.777h2.146v2.525h-2.146v-2.525Zm8.33 15.777h2.272v2.524h-2.272v-2.524Zm0-15.777h2.272v2.525h-2.272v-2.525Zm-8.33 7.825h2.146v2.525h-2.146v-2.525Zm8.33 0h1.893c.291 0 .379.088.379.38v2.145h-2.272v-2.525Zm12.622-10.35c0 .466.323.758.63.758h7.447c1.213 0 1.293-1.641-.378-1.641h-6.437c-.694 0-1.262.167-1.262.884Zm0 5.554c0 .392.13.883.63.883h7.7c.813 0 .813-1.514 0-1.514h-7.7c-.294 0-.63.336-.63.63Zm10.028 11.811c0 1.07-.245 1.823-.738 2.259-.49.433-1.241.654-2.248.654-1.438 0-2.157-.609-2.157-1.822 0-.266.033-.568.1-.907l.734.185c-.035.212-.053.45-.053.713 0 .344.11.59.332.736.22.145.572.22 1.053.22.759 0 1.315-.143 1.666-.427.351-.283.527-.81.527-1.583v-4.803h.783v4.776Zm2.156 1.798h-.292c-.534 0-.918-.142-1.15-.424-.232-.285-.346-.734-.346-1.347v-4.803h.78v4.785c0 .61.226.915.678.915h.332v.874Zm1.771-1.77c0 .643-.122 1.099-.367 1.367-.245.269-.622.403-1.13.403h-.292v-.874h.332c.452 0 .677-.306.677-.915v-.82h.78v.838Zm-.837 3.056h-.66v-.66h.66v.66Zm-1.202 0h-.663v-.66h.663v.66Zm5.008-3.744c.194.529.293 1.09.293 1.682 0 .928-.278 1.644-.829 2.15-.55.508-1.3.762-2.248.762-.213 0-.507-.021-.883-.062l.165-.79c.27.047.511.071.727.071 1.525 0 2.288-.71 2.288-2.13 0-.502-.153-1.063-.458-1.682h.946Zm-31.187-6.735v3.534c0 .583.28 1.01.883 1.01h3.66c.588 0 .883-.294.883-.883v-4.165c0-.294-.337-.63-.63-.63h-3.913c-.708 0-.883.436-.883 1.135Zm-8.33-.252v3.786c0 .583.28 1.01.883 1.01h3.66c.59 0 .884-.294.884-.883v-3.912c0-.425-.223-.884-.632-.884h-3.912c-.59 0-.883.295-.883.884Zm8.33-7.825c0 5.432-.773 4.796 4.164 4.796.569 0 1.263-.239 1.263-.757v-4.165c0-.589-.295-.883-.883-.883H89.29c-.61 0-1.01.398-1.01 1.01Zm0 15.777v3.787c0 1.445 2.044 1.01 4.417 1.01.582 0 1.01-.28 1.01-.883v-4.165c0-1.123-2.95-.758-4.418-.758-.61 0-1.01.4-1.01 1.01Zm-8.33-15.777c0 5.432-.773 4.796 4.165 4.796.568 0 1.262-.239 1.262-.757v-4.165c0-.589-.295-.883-.884-.883h-3.535c-.61 0-1.01.398-1.01 1.01Zm0 15.777v3.787c0 1.445 2.045 1.01 4.417 1.01.461 0 1.01-.348 1.01-.758v-4.291c0-1.123-2.95-.758-4.418-.758-.61 0-1.01.4-1.01 1.01Zm-1.263 28.525v-11.99c0-.465.49-.394 1.624-.774l5.57-1.75 16.918 4.539c2.238 1.03 1.261 4.296-.888 4.296-.534 0-2.446-.605-3.029-.759l-6.086-1.613c-.642-.165-2.642-.785-3.128-.785-.502 0-.952.762-.537 1.283.322.406 9.251 2.644 10.634 3.01 1.689.447 3.103.745 4.636-.54a3.72 3.72 0 0 0 .996-1.403c.115-.305.103-.468.177-.706.194-.618.763-.542 1.991-1.29 2.089-1.273 6.285-3.18 8.602-4.526 1.202-.7 2.566-1.62 4-.455.875.713.907 2.331.14 3.206-.47.536-16.863 9.755-19.147 11.146-1.084.661-1.21.626-2.91.624l-10.494.234c-1.801.204-5.696-.87-7.716-1.21-.536-.09-1.354-.042-1.354-.54Zm-10.35-15.776v19.436c0 .457.107.705.253 1.01 1.278.297 7.673.127 9.467.127.927 0 .63-1.97.63-2.903l5.375 1.063c.53.107 1.328.326 1.82.326 1.713 0 4.855.178 6.383-.053 2.384-.361 6.923.406 9.017-.576l14.315-8.278c1.568-.928 4.834-2.521 5.977-3.742 2.553-2.726-.598-7.888-4.854-5.738l-10.065 5.334c-.378.227-.782.459-1.209.558-.454-1.948-2.55-2.39-3.801-2.762l-10.463-2.79c-.857-.227-1.662-.483-2.573-.71-3.341-.827-2.004-1.028-6.308.408l-3.613 1.183c0-1.432.344-2.903-1.01-2.903h-8.33c-.61 0-1.01.4-1.01 1.01Zm45.817-4.923c-1.504 0-2.458-.114-3.825-.718-1.262-.558-2.373-1.537-3.192-2.614-1.293-1.702-1.565-3.26-1.565-5.377 0-3.903 3.796-7.7 7.7-7.7 1.76 0 2.393.028 4.037.758.443.197.776.415 1.19.704.321.223.286.23.55.46.205.176.374.263.55.458.606.67 1.249 1.458 1.61 2.304 2.706 6.367-2.336 11.724-7.055 11.724Zm-7.447-14.893h-3.786c-.407.607-.5.325-.253 1.389.792.184 1.683.125 2.65.125-.211.907-1.262 2.15-1.262 4.166-1.555 0-1.662.212-1.388 1.388.406.195.643.253 1.263.253.369 1.586.259 2.29 1.176 3.998.291.543.708 1.12 1.076 1.575.41.508.927.838 1.282 1.369h-6.437v-27.894l11.99-3.156.011 12.885c.017 1.527-.008.301-2.933 1.483-.959.387-1.925.936-2.663 1.629-.598.561-.607.345-.726.79Zm-7.32-14.01v28.273H97.62v-26.758c0-.569-.239-1.263-.757-1.263h-4.67v-5.174h9.845c0 4.193.423 3.3-1.473 3.827-.674.189-1.178.284-1.178 1.095Zm-8.835-5.554v5.806H77.048c-.59 0-.883.295-.883.884v27.894c0 1.252 1.826.883 3.912.883l29.284-.001c2.718-.016 3.754 1.598 8.35-.231 2.704-1.077 4.972-3.906 5.607-6.762 1.247-5.609-2.436-10.925-7.612-11.848-1.414-.253-1.172.662-1.172-3.246l.003-10.984c.024-2.396-.964-1.477-5.835-.15-.915.25-1.67.437-2.58.703-.471.137-.851.218-1.292.349-.345.102-.97.216-1.277.363v-4.165c-.26-.174-.327-.378-.631-.378H91.183c-.408 0-.63.458-.63.883Z" fill="#fbac1a" fill-rule="evenodd"/><path d="M77.68 301.33h18.3v26.38h-18.3v-26.38Zm-7.7 32.564h7.068v18.427H69.98v-18.427Zm11.612-12.748h2.146v2.524h-2.146v-2.524Zm0-15.777h2.146v2.525h-2.146v-2.525Zm8.33 15.777h2.272v2.524h-2.272v-2.524Zm0-15.777h2.272v2.525h-2.272v-2.525Zm-8.33 7.825h2.146v2.525h-2.146v-2.525Zm8.33 0h1.893c.291 0 .379.088.379.38v2.145h-2.272v-2.525Zm12.622-10.35c0 .466.323.758.63.758h7.447c1.213 0 1.293-1.641-.378-1.641h-6.437c-.694 0-1.262.167-1.262.884Zm0 5.554c0 .392.13.883.63.883h7.7c.813 0 .813-1.514 0-1.514h-7.7c-.294 0-.63.336-.63.63Zm10.028 11.811c0 1.07-.245 1.823-.738 2.259-.49.433-1.241.654-2.248.654-1.438 0-2.157-.609-2.157-1.822 0-.266.033-.568.1-.907l.734.185c-.035.212-.053.45-.053.713 0 .344.11.59.332.736.22.145.572.22 1.053.22.759 0 1.315-.143 1.666-.427.351-.283.527-.81.527-1.583v-4.803h.783v4.776Zm2.156 1.798h-.292c-.534 0-.918-.142-1.15-.424-.232-.285-.346-.734-.346-1.347v-4.803h.78v4.785c0 .61.226.915.678.915h.332v.874Zm1.771-1.77c0 .643-.122 1.099-.367 1.367-.245.269-.622.403-1.13.403h-.292v-.874h.332c.452 0 .677-.306.677-.915v-.82h.78v.838Zm-.837 3.056h-.66v-.66h.66v.66Zm-1.202 0h-.663v-.66h.663v.66Zm5.008-3.744c.194.529.293 1.09.293 1.682 0 .928-.278 1.644-.829 2.15-.55.508-1.3.762-2.248.762-.213 0-.507-.021-.883-.062l.165-.79c.27.047.511.071.727.071 1.525 0 2.288-.71 2.288-2.13 0-.502-.153-1.063-.458-1.682h.946Zm-31.187-6.735v3.534c0 .583.28 1.01.883 1.01h3.66c.588 0 .883-.294.883-.883v-4.165c0-.294-.337-.63-.63-.63h-3.913c-.708 0-.883.436-.883 1.135Zm-8.33-.252v3.786c0 .583.28 1.01.883 1.01h3.66c.59 0 .884-.294.884-.883v-3.912c0-.425-.223-.884-.632-.884h-3.912c-.59 0-.883.295-.883.884Zm8.33-7.825c0 5.432-.773 4.796 4.164 4.796.569 0 1.263-.239 1.263-.757v-4.165c0-.589-.295-.883-.883-.883H89.29c-.61 0-1.01.398-1.01 1.01Zm0 15.777v3.787c0 1.445 2.044 1.01 4.417 1.01.582 0 1.01-.28 1.01-.883v-4.165c0-1.123-2.95-.758-4.418-.758-.61 0-1.01.4-1.01 1.01Zm-8.33-15.777c0 5.432-.773 4.796 4.165 4.796.568 0 1.262-.239 1.262-.757v-4.165c0-.589-.295-.883-.884-.883h-3.535c-.61 0-1.01.398-1.01 1.01Zm0 15.777v3.787c0 1.445 2.045 1.01 4.417 1.01.461 0 1.01-.348 1.01-.758v-4.291c0-1.123-2.95-.758-4.418-.758-.61 0-1.01.4-1.01 1.01Zm-1.263 28.525v-11.99c0-.465.49-.394 1.624-.774l5.57-1.75 16.918 4.539c2.238 1.03 1.261 4.296-.888 4.296-.534 0-2.446-.605-3.029-.759l-6.086-1.613c-.642-.165-2.642-.785-3.128-.785-.502 0-.952.762-.537 1.283.322.406 9.251 2.644 10.634 3.01 1.689.447 3.103.745 4.636-.54a3.72 3.72 0 0 0 .996-1.403c.115-.305.103-.468.177-.706.194-.618.763-.542 1.991-1.29 2.089-1.273 6.285-3.18 8.602-4.526 1.202-.7 2.566-1.62 4-.455.875.713.907 2.331.14 3.206-.47.536-16.863 9.755-19.147 11.146-1.084.661-1.21.626-2.91.624l-10.494.234c-1.801.204-5.696-.87-7.716-1.21-.536-.09-1.354-.042-1.354-.54Zm-10.35-15.776v19.436c0 .457.107.705.253 1.01 1.278.297 7.673.127 9.467.127.927 0 .63-1.97.63-2.903l5.375 1.063c.53.107 1.328.326 1.82.326 1.713 0 4.855.178 6.383-.053 2.384-.361 6.923.406 9.017-.576l14.315-8.278c1.568-.928 4.834-2.521 5.977-3.742 2.553-2.726-.598-7.888-4.854-5.738l-10.065 5.334c-.378.227-.782.459-1.209.558-.454-1.948-2.55-2.39-3.801-2.762l-10.463-2.79c-.857-.227-1.662-.483-2.573-.71-3.341-.827-2.004-1.028-6.308.408l-3.613 1.183c0-1.432.344-2.903-1.01-2.903h-8.33c-.61 0-1.01.4-1.01 1.01Zm45.817-4.923c-1.504 0-2.458-.114-3.825-.718-1.262-.558-2.373-1.537-3.192-2.614-1.293-1.702-1.565-3.26-1.565-5.377 0-3.903 3.796-7.7 7.7-7.7 1.76 0 2.393.028 4.037.758.443.197.776.415 1.19.704.321.223.286.23.55.46.205.176.374.263.55.458.606.67 1.249 1.458 1.61 2.304 2.706 6.367-2.336 11.724-7.055 11.724Zm-7.447-14.893h-3.786c-.407.607-.5.325-.253 1.389.792.184 1.683.125 2.65.125-.211.907-1.262 2.15-1.262 4.166-1.555 0-1.662.212-1.388 1.388.406.195.643.253 1.263.253.369 1.586.259 2.29 1.176 3.998.291.543.708 1.12 1.076 1.575.41.508.927.838 1.282 1.369h-6.437v-27.894l11.99-3.156.011 12.885c.017 1.527-.008.301-2.933 1.483-.959.387-1.925.936-2.663 1.629-.598.561-.607.345-.726.79Zm-7.32-14.01v28.273H97.62v-26.758c0-.569-.239-1.263-.757-1.263h-4.67v-5.174h9.845c0 4.193.423 3.3-1.473 3.827-.674.189-1.178.284-1.178 1.095Zm-8.835-5.554v5.806H77.048c-.59 0-.883.295-.883.884v27.894c0 1.252 1.826.883 3.912.883l29.284-.001c2.718-.016 3.754 1.598 8.35-.231 2.704-1.077 4.972-3.906 5.607-6.762 1.247-5.609-2.436-10.925-7.612-11.848-1.414-.253-1.172.662-1.172-3.246l.003-10.984c.024-2.396-.964-1.477-5.835-.15-.915.25-1.67.437-2.58.703-.471.137-.851.218-1.292.349-.345.102-.97.216-1.277.363v-4.165c-.26-.174-.327-.378-.631-.378H91.183c-.408 0-.63.458-.63.883Z" stroke-linejoin="round" stroke-linecap="round" stroke-width=".3" stroke="#fbac1a" fill="transparent"/></g></g></svg>