<svg xmlns="http://www.w3.org/2000/svg" width="22.555" height="28.332" viewBox="-0.004 -0.035 22.555 28.332"><g data-name="_1926370295888"><path d="M10.471 13.213c.433-.505.833-1.03 1.266-1.536.425-.498.838-1.032 1.257-1.544.44-.536.823-1.044 1.263-1.538.694-.779 1.42.003 1.857.354.902.723.506 1.209.062 1.792-.411.54-.836 1.002-1.263 1.54-.493.62-4.782 5.946-5.055 6.095-.368.202-.78.19-1.07-.042l-.694-.677c-.432-.457-.908-1.045-1.357-1.447-1.146-1.027-1.088-1.457.041-2.515.924-.866 1.608.169 2.428 1.04l1.265-1.522Zm9.563-1.426c.027-.646.092-4.62-.023-4.963-.172-.518-1.092-.675-1.632-.882-1.966-.75-3.415-1.348-5.322-2.285-2.118-1.04-1.367-1.081-3.483-.034a56.712 56.712 0 0 1-3.505 1.585c-.601.248-1.191.478-1.811.706-.536.196-1.477.398-1.687.829-.153.315-.083 4.29-.058 4.962.133 3.583.892 6.822 2.894 9.725 1.055 1.53 2.376 2.67 4.024 3.58 1.657.914 1.958.934 3.615.04 4.212-2.269 6.714-6.694 6.988-13.263Z" fill="#39b54a" fill-rule="evenodd" data-name="Path 2870"/><path d="M20.034 11.788c-.275 6.569-2.777 10.993-6.988 13.263-1.657.893-1.958.873-3.615-.04-1.648-.91-2.97-2.051-4.024-3.581-2.002-2.903-2.761-6.142-2.894-9.724-.025-.674-.096-4.647.058-4.963.21-.431 1.151-.633 1.687-.83.62-.226 1.21-.457 1.81-.705a56.866 56.866 0 0 0 3.506-1.585c2.116-1.047 1.365-1.006 3.483.035 1.907.936 3.356 1.533 5.322 2.285.54.206 1.46.363 1.632.881.115.342.05 4.318.023 4.964ZM.012 5.327c0 5.871-.328 9.965 2.002 15.208.187.421.44.806.665 1.221.22.403.48.771.74 1.147.14.204.248.325.399.516.157.2.27.355.44.533.17.179.241.302.428.486l.717.712c.116.097.137.093.255.202.174.162.34.304.52.452.353.288.72.521 1.106.78.19.128.376.245.563.352.79.453 2.621 1.305 3.383 1.36.288.021 1.167-.305 1.453-.407.462-.165.898-.357 1.319-.568a13.55 13.55 0 0 0 2.551-1.68c1.248-1.05 1.97-1.827 2.898-3.22.13-.193.26-.367.381-.59.23-.426.458-.78.668-1.22 2.334-4.878 2.039-9.836 2.039-15.285 0-.787-.695-.742-1.895-1.193-.267-.1-.494-.155-.769-.26-1.534-.594-3.66-1.39-5.131-2.13-.141-.071-.2-.1-.349-.166L12 .312c-.813-.487-.584-.54-2.073.35-.823.49-2.536 1.29-3.453 1.692-.252.11-.488.209-.76.326-.499.214-.96.395-1.463.596L1.19 4.39c-.71.236-1.18.236-1.18.936Z" fill="#e7ebf2" fill-rule="evenodd" data-name="Path 2871"/><path d="M9.206 14.735c-.82-.871-1.504-1.906-2.427-1.04-1.13 1.058-1.188 1.488-.041 2.515.448.402.924.99 1.356 1.447l.694.677c.29.232.702.244 1.07.042.273-.15 4.562-5.474 5.056-6.096.426-.537.85-1 1.262-1.539.445-.583.84-1.07-.061-1.792-.438-.35-1.163-1.133-1.857-.354-.44.494-.824 1.002-1.263 1.538-.42.512-.833 1.046-1.258 1.544-.432.507-.833 1.03-1.265 1.536l-1.266 1.522Z" fill="#fefffe" fill-rule="evenodd" data-name="Path 2872"/></g></svg>