<svg xmlns="http://www.w3.org/2000/svg" width="22.561" height="33.211" viewBox="44 650.338 22.561 33.211"><path d="M44 680.323c0 .433.151.891.39 1.32.272.485.654.922 1.064 1.235.135.104.255.162.405.236l.12.06c.166.082.373.177.604.254.212.07.435.12.64.12v-.001h12.55v.002c.371 0 .633-.235.752-.533a1.06 1.06 0 0 0 .075-.393.932.932 0 0 0-.075-.374c-.124-.284-.427-.502-.949-.497l-.259.002c-1.21.01-11.462.043-11.932-.03-.528-.083-.926-.299-1.198-.651-.264-.341-.394-.79-.394-1.35v-25.56c0-.604.17-1.11.501-1.47.33-.36.8-.562 1.4-.562h12.512c.86 0 1.177.337 1.563.746.039.041.079.083.16.164l1.13 1.131c.29.289.478.47.635.621 1.066 1.025 1.073 1.031 1.073 2.632l.005 16.681a.737.737 0 0 0 .195.381.997.997 0 0 0 .842.292.858.858 0 0 0 .476-.229c.064-.06.15-.168.214-.289a.453.453 0 0 0 .062-.18v-17.72c0-1.414-1.075-2.443-1.948-3.278-.16-.153-.314-.302-.405-.392-.09-.09-.238-.245-.39-.404-.837-.873-1.866-1.948-3.276-1.949v.002H47.225v-.002c-.308 0-.64.085-.962.22-.371.157-.722.38-1 .62a4.226 4.226 0 0 0-.512.512c-.139.169-.264.363-.395.615a3.936 3.936 0 0 0-.255.69c-.058.21-.1.419-.1.567h.001v26.763H44Zm5.326-8.522c0 .354.08.654.24.849.128.154.323.247.59.247h4.925a.844.844 0 0 0 .553-.229c.17-.152.276-.336.276-.468v-.399c0-.124-.107-.293-.255-.441-.148-.148-.317-.256-.44-.256h-5.193c-.123 0-.293.108-.44.256-.148.148-.256.317-.256.441Zm0-5.324c0 .353.08.653.24.848.128.155.323.247.59.247h10.25a.841.841 0 0 0 .553-.228c.17-.153.276-.336.276-.468v-.4c0-.123-.107-.292-.255-.44-.148-.148-.318-.255-.441-.255H50.022c-.123 0-.293.107-.44.255-.148.148-.256.317-.256.44Zm0-5.325c0 .353.08.654.24.849.128.154.323.247.59.247h10.383c.124 0 .293-.107.441-.255.148-.149.255-.318.255-.441v-.4c0-.123-.107-.293-.255-.44-.148-.149-.318-.256-.441-.256H50.022c-.123 0-.293.107-.44.255-.148.148-.256.318-.256.441Z" fill="#243941" fill-rule="evenodd" data-name="Path 6264"/></svg>