<svg xmlns="http://www.w3.org/2000/svg" width="60" height="55.78" viewBox="163.5 429.61 60 55.78"><g data-name="_1888220297408"><path d="M179.087 470.625h10.663v13.125h-10.663v-13.125Zm23.906 12.773v-18.164h18.867v18.516h-18.516c-.27 0-.351-.082-.351-.352Zm-25.547-13.476v13.828h-9.96v-24.258h33.866v24.258h-9.96v-14.062c0-.282-.422-.703-.704-.703h-12.304c-.567 0-.937.37-.937.937Zm30.703-14.648h6.562v8.32h-6.562v-8.32Zm-36.68-16.992h25.899v19.57h-25.899v-19.57Zm35.04 16.289v9.023h-3.516v-5.039c0-1.035-2.666-.703-3.985-.703v-13.476h20.86v19.218h-3.516v-9.14c0-.547-.273-.82-.82-.82h-8.32c-.38 0-.703.509-.703.937Zm-37.97-23.32h31.524c.425 0 1.268 2.066 1.485 2.5.325.651 1.19 2.18 1.327 2.772h-37.148c.119-.508 1.534-3.183 1.953-4.023.17-.342.463-1.25.86-1.25Zm-5.038 6.093c0 .712.591.937 1.289.937h5.039v19.57c-1.318 0-3.985-.33-3.985.704v26.132c0 .38.51.703.938.703h55.78c.567 0 .938-.37.938-.937v-20.156c0-.849-1.476-.703-1.992-.703v-20.04c0-.546-.274-.82-.82-.82h-21.68v-4.452h4.687c2.67 0 .9-2.186-.547-5.078l-1.015-2.031c-.413-.827-.47-1.563-1.602-1.563h-32.578c-1.14 0-1.71 2.137-2.46 3.633-.244.484-1.993 3.848-1.993 4.101Z" fill="#373435" fill-rule="evenodd" data-name="Path 2894"/><path d="M185.298 448.829h5.039v3.632h-5.04v-3.632Zm-6.798 0h5.04v3.632h-5.04v-3.632Zm6.798-5.274h5.039v3.633h-5.04v-3.633Zm-6.798 0h5.04v3.633h-5.04v-3.633Zm-1.64-.82v10.781c0 .38.51.703.937.703h13.243c.428 0 .937-.323.937-.703v-10.78c0-.548-.273-.821-.82-.821H177.68c-.548 0-.82.273-.82.82Z" fill="#373435" fill-rule="evenodd" data-name="Path 2895"/><path d="M169.243 462.774c0 .417-.1 1.054.82 1.054h28.711c1.298 0 .98-1.64.235-1.64h-29.18c-.273 0-.586.312-.586.586Z" fill="#373435" fill-rule="evenodd" data-name="Path 2896"/><path d="M201 447.656c0 .71.37.938 1.407.938h14.062c2.2 0 1.65-1.758.586-1.758h-15.233c-.548 0-.82.273-.82.82Z" fill="#373435" fill-rule="evenodd" data-name="Path 2897"/><path d="M211.548 469.453v10.078c0 2 1.758 1.774 1.758.235v-10.781c0-1.112-1.758-1.61-1.758.469Z" fill="#373435" fill-rule="evenodd" data-name="Path 2898"/><path d="M206.977 468.985V480c0 1.154 1.64 1.318 1.64.117v-11.484c0-.737-1.64-.948-1.64.352Z" fill="#373435" fill-rule="evenodd" data-name="Path 2899"/><path d="M216.235 468.868v11.25c0 1.217 1.64 1.02 1.64-.118v-11.015c0-1.2-1.64-1.293-1.64-.117Z" fill="#373435" fill-rule="evenodd" data-name="Path 2900"/></g></svg>