<svg xmlns="http://www.w3.org/2000/svg" width="20.721" height="18.999" viewBox="297.637 246 20.721 18.999"><path d="m318.32 262.755-.842-2.638a.433.433 0 0 0-.823.264l.723 2.26-3.47-2.282c.081-.252.135-.513.135-.785v-3.828c0-.927-.5-1.79-1.305-2.25l-3.455-1.974a2.55 2.55 0 0 0-.853-.283v-4.108l1.861 1.773a.431.431 0 1 0 .595-.626l-2.027-1.93a1.189 1.189 0 0 0-1.668-.011l-2.078 1.938a.432.432 0 1 0 .588.63l1.865-1.737v4.07c-.295.05-.586.132-.853.284l-3.454 1.974a2.596 2.596 0 0 0-1.306 2.25v3.827c0 .272.054.533.135.785l-3.467 2.282.721-2.26a.433.433 0 0 0-.823-.264l-.848 2.669c-.155.635.236 1.279.846 1.426 0 0 2.532.788 2.574.788a.432.432 0 0 0 .13-.844l-2.254-.707 3.532-2.324c.208.276.454.524.762.7l3.454 1.972c.39.223.85.334 1.285.339a2.676 2.676 0 0 0 1.285-.338l3.454-1.973a2.57 2.57 0 0 0 .763-.7l3.531 2.323-2.253.708a.431.431 0 0 0 .13.844c.043 0 2.547-.78 2.547-.78.636-.155 1.027-.799.864-1.464Zm-10.752.464a1.7 1.7 0 0 1-.425-.172l-3.454-1.973a1.73 1.73 0 0 1-.87-1.499v-3.828c0-.23.059-.45.145-.657l4.604 2.631v5.498Zm-4.075-8.823c.064-.05.123-.108.195-.15l3.454-1.973a1.732 1.732 0 0 1 1.713 0l3.454 1.974c.073.041.132.098.196.15l-4.507 2.575-4.507-2.576Zm9.688 5.178c0 .618-.334 1.194-.87 1.5l-3.455 1.973a1.731 1.731 0 0 1-.425.171v-5.498l4.604-2.631c.086.207.146.426.146.657v3.828Z" fill-rule="evenodd" data-name="model-cube-arrows (1)"/></svg>