<svg xmlns="http://www.w3.org/2000/svg" width="32.886" height="33.035"><g data-name="Group 4424"><path d="M28.082 4.803A16.216 16.216 0 0 0 16.505 0C7.49 0 .14 7.346.132 16.365c0 2.888.756 5.698 2.183 8.186L0 33.035l8.68-2.275a16.38 16.38 0 0 0 7.825 1.992h.008c9.019 0 16.365-7.346 16.373-16.373A16.307 16.307 0 0 0 28.08 4.803ZM16.505 29.982c-2.438 0-4.832-.656-6.929-1.9l-.495-.297-5.15 1.35 1.375-5.023-.322-.519a13.544 13.544 0 0 1-2.079-7.236c0-7.487 6.105-13.594 13.608-13.594a13.544 13.544 0 0 1 9.622 3.987 13.538 13.538 0 0 1 3.98 9.621c-.008 7.513-6.113 13.61-13.61 13.61Zm7.464-10.188c-.407-.204-2.416-1.193-2.794-1.333-.375-.135-.65-.205-.918.204-.275.407-1.06 1.334-1.295 1.6-.235.275-.479.306-.888.103-.406-.206-1.726-.636-3.287-2.033-1.218-1.084-2.033-2.426-2.277-2.833-.235-.409-.023-.628.182-.832.18-.182.406-.48.61-.715.207-.235.275-.408.41-.681.134-.277.07-.512-.031-.716-.104-.205-.92-2.222-1.264-3.036-.33-.803-.667-.691-.919-.702-.235-.014-.51-.014-.784-.014-.42.01-.815.195-1.093.51-.375.409-1.426 1.398-1.426 3.415 0 2.017 1.466 3.956 1.672 4.23.203.275 2.878 4.402 6.985 6.178.97.423 1.734.673 2.331.863.98.314 1.867.267 2.573.165.784-.12 2.417-.99 2.762-1.947.339-.958.339-1.775.236-1.947-.102-.173-.376-.274-.785-.479Z" fill="#fff" fill-rule="evenodd" data-name="Path 2638"/></g></svg>