<svg xmlns="http://www.w3.org/2000/svg" width="22.325" height="15.254" viewBox="41.823 546.911 22.325 15.254"><g data-name="wifi"><g data-name="Group 4394"><path d="M63.93 551.528a.719.719 0 0 0-.07-1.091 18.443 18.443 0 0 0-10.875-3.526 18.435 18.435 0 0 0-10.874 3.526.719.719 0 0 0-.07 1.09.768.768 0 0 0 .99.075 16.967 16.967 0 0 1 9.954-3.209c3.716 0 7.155 1.189 9.954 3.207.304.22.727.193.99-.072Z" fill="#fbac1a" fill-rule="evenodd" data-name="Path 2622"/><path d="M60.735 554.723a.714.714 0 0 0-.093-1.104 14.013 14.013 0 0 0-7.657-2.262c-2.823 0-5.454.83-7.656 2.262a.711.711 0 0 0-.093 1.104c.26.254.66.294.966.097a12.539 12.539 0 0 1 6.783-1.98 12.539 12.539 0 0 1 6.783 1.98c.305.195.711.16.967-.097ZM57.5 557.96c.335-.335.274-.897-.148-1.112a9.594 9.594 0 0 0-4.367-1.043 9.601 9.601 0 0 0-4.366 1.043c-.422.215-.483.777-.148 1.112l.022.022a.788.788 0 0 0 .906.133 8.12 8.12 0 0 1 3.586-.828c1.287 0 2.505.298 3.587.83.301.148.667.103.904-.135l.024-.022Zm-2.944 2.943c.291-.29.294-.77-.059-.978a2.95 2.95 0 0 0-1.512-.415 2.95 2.95 0 0 0-1.511.415c-.353.207-.35.688-.06.978l1.047 1.046c.29.29.758.29 1.048 0l1.047-1.047Z" fill="#fbac1a" fill-rule="evenodd" data-name="Path 2623"/></g></g></svg>