<svg xmlns="http://www.w3.org/2000/svg" width="21.832" height="17.984" viewBox="243.509 666.008 21.832 17.984"><g data-name="wire"><path d="M265.342 677.251a6.727 6.727 0 0 1-6.714 6.74h-.015a6.64 6.64 0 0 1-4.093-1.46 6.82 6.82 0 0 1-11.011-5.28v-10.602h1.283v10.602a5.458 5.458 0 0 0 8.719 4.38 6.716 6.716 0 0 1-1.651-4.38v-8.678a2.565 2.565 0 1 1 5.13 0v8.679a6.7 6.7 0 0 1-1.61 4.38 5.455 5.455 0 0 0 7.626-1.187 5.47 5.47 0 0 0 1.053-3.194v-10.602h1.283v10.602Zm-9.634-8.678a1.283 1.283 0 0 0-2.565 0v8.678a5.456 5.456 0 0 0 1.282 3.507 5.462 5.462 0 0 0 1.283-3.507v-8.678Z" fill="#fbac1a" fill-rule="evenodd" data-name="Path 2633"/></g></svg>